<?xml version="1.0" encoding="UTF-8"?>
<svg width="600px" height="421px" viewBox="0 0 600 421" version="1.1" xmlns="http://www.w3.org/2000/svg" xmlns:xlink="http://www.w3.org/1999/xlink">
    <!-- Generator: Sketch 52.4 (67378) - http://www.bohemiancoding.com/sketch -->
    <title>what is devops</title>
    <desc>Created with Sketch.</desc>
    <g id="Page-1" stroke="none" stroke-width="1" fill="none" fill-rule="evenodd">
        <g id="what-is-devops">
            <path d="M366.6,166.94 C359.724406,162.245259 353.123579,157.160252 346.83,151.71 C330.59,137.77 316.42,122.25 306.77,111.12 C319.57,97.76 330.94,86.67 341.29,77.58 L344.4,47.23 L315.3,44.23 C304.43,53.66 292.6,65.02 279.3,78.78 L250.3,109.86 C247.21,113.24 244.3,116.48 241.5,119.52 C222.61,140.27 209.44,154.52 198.6,164.22 L223.85,166.81 L220.33,201.15 C235.33,189 250.7,172.15 272.72,147.95 L277.9,142.26 C290.744765,157.014879 304.58373,170.87389 319.32,183.74 C325.75,189.26 332.11,194.27 338.32,198.74 L337.86,167.37 L366.6,166.94 Z" id="Path" fill="#701467"></path>
            <path d="M476.62,50 L447.62,55.15 C437,46.99 424.85,42.15 413.62,42.15 C391.62,42.15 370.56,51.84 341.31,77.5 L344.42,47.15 L315.32,44.15 C323.643451,36.8729373 332.403051,30.110379 341.55,23.9 C365.84,7.6 388.74,0 413.6,0 C433.39,0 453.67,7.21 471.31,20.2 L476.62,50 Z" id="Path" fill="#A46BA1"></path>
            <path d="M519,112 C519.011669,127.053451 515.984548,141.954365 510.1,155.81 C507.338884,162.368376 503.967387,168.652686 500.03,174.58 L472.74,177.76 L468.86,144.45 C474.057621,134.421689 476.780092,123.295215 476.8,112 C476.8,88.51 464.04,67.8 447.61,55.16 L476.61,50.01 L471.31,20.2 C488.084878,32.5818639 501.3382,49.1269726 509.76,68.2 C515.839298,82.0027949 518.985737,96.917732 519,112 Z" id="Path" fill="#AF214E"></path>
            <path d="M500.06,174.61 C495.991866,180.753554 491.340302,186.490148 486.17,191.74 C476.070411,202.068795 464.084007,210.365247 450.86,216.18 C437.25913,222.18272 422.556616,225.285335 407.69,225.29 C392.63,225.29 376.48,220.8 359.69,211.96 C355.143333,209.566667 350.506667,206.83 345.78,203.75 C343.34,202.17 340.873333,200.503333 338.38,198.75 L337.92,167.38 L366.62,166.97 C370.491363,169.602631 374.496751,172.032566 378.62,174.25 C389.5,180.09 399.29,183.09 407.68,183.09 C433.86,183.09 457.19,167.21 468.88,144.51 L472.76,177.82 L500.06,174.61 Z" id="Path" fill="#EDB51C"></path>
            <path d="M223.85,166.82 L220.33,201.16 C218.51,202.63 216.7,204.04 214.87,205.38 C195.87,219.38 177.35,225.29 152.87,225.29 C128.07,225.29 101.33,214.73 81.33,197.06 C75.5498947,191.957416 70.3243013,186.259206 65.74,180.06 L101.04,182.78 L102.88,158.91 C104.869961,161.216777 107.014938,163.385142 109.3,165.4 C124.01,178.4 141.45,183.04 152.87,183.04 C170.87,183.04 182.01,178.98 198.58,164.21 L223.85,166.82 Z" id="Path" fill="#EDB51C"></path>
            <path d="M86.36,112 C86.36,133.88 94.36,149 102.9,158.9 L101.06,182.77 L65.76,180.05 C61.4253833,174.205049 57.6993651,167.932472 54.64,161.33 C47.5644233,145.855405 43.9764485,129.014796 44.13,112 C44.13,94.31 47.51,77.85 54.13,63.08 C60.2348044,49.5127907 69.1714504,37.4085963 80.34,27.58 C82.06,26.05 83.84,24.58 85.66,23.17 L86.1,56.44 L112.38,56.1 C97.82,67.08 86.36,85.08 86.36,112 Z" id="Path" fill="#AF214E"></path>
            <path d="M201.25,32.78 L201.69,62.65 C183.52,49.25 166.82,42.23 152.89,42.23 C140.8,42.23 125.38,46.41 112.43,56.13 L86.15,56.47 L85.71,23.2 C104.960344,8.32193705 128.560943,0.171685701 152.89,1.0658141e-14 C177.61,1.0658141e-14 204.05,10.87 231.59,32.33 L201.25,32.78 Z" id="Path" fill="#A46BA1"></path>
            <path d="M279.29,78.79 L250.29,109.87 C241.4,99.38 227.99,84.38 212.36,71.13 C208.746667,68.07 205.186667,65.2433333 201.68,62.65 L201.24,32.78 L231.58,32.33 C234.246667,34.43 236.943333,36.6266667 239.67,38.92 C253.877538,51.1764816 267.123127,64.5056494 279.29,78.79 Z" id="Path" fill="#FA8C0B"></path>
            <path d="M337.9,167.35 L338.36,198.72 C332.11,194.28 325.75,189.27 319.36,183.72 C304.62373,170.85389 290.784765,156.994879 277.94,142.24 L306.81,111.09 C316.46,122.22 330.63,137.74 346.87,151.68 C353.163579,157.130252 359.764406,162.215259 366.64,166.91 L337.9,167.35 Z" id="Path" fill="#FA8C0B"></path>
            <path d="M112.22,28 C111.179597,28.4601321 110.431854,29.402289 110.22,30.52 C110.110347,31.7452936 110.467511,32.9667945 111.22,33.94 C112.92,36.5 114.75,37.17 116.93,36.05 C118.040046,35.4340178 119.070964,34.6851747 120,33.82 C120.35,34.55 120.7,35.29 121,36.03 C120.050161,36.9679307 118.956327,37.7477938 117.76,38.34 C116.229638,39.252493 114.404954,39.5356954 112.67,39.13 C110.852035,38.5447236 109.291153,37.3511076 108.25,35.75 C107.441883,34.7325657 106.93289,33.510291 106.78,32.22 C106.659194,31.0051593 106.963103,29.785993 107.64,28.77 C108.468267,27.5684591 109.59528,26.6034334 110.91,25.97 C112.462957,25.1728002 114.166842,24.7127512 115.91,24.62 C115.91,25.48 115.91,26.34 115.99,27.19 C115.319098,27.229538 114.651208,27.3096848 113.99,27.43 C113.375698,27.5340534 112.779581,27.7260234 112.22,28 Z" id="Path" fill="#FFFFFF"></path>
            <path d="M135.46,25.21 C136.002143,27.0535218 135.729146,29.0409409 134.71,30.67 C133.579573,32.1876022 131.926157,33.2316773 130.07,33.6 C128.261802,34.2083581 126.294893,34.1444513 124.53,33.42 C122.78588,32.5409146 121.423605,31.0541498 120.7,29.24 C119.7,27.16 119.58,25.33 120.39,23.74 C121.2,22.15 122.91,20.9 125.52,20.16 C127.677675,19.4084656 130.042267,19.5195298 132.12,20.47 C133.899832,21.4558519 135.130413,23.2022452 135.46,25.21 Z M124,28 C124.387917,29.2179665 125.168632,30.2729874 126.22,31 C127.176868,31.5417855 128.320089,31.6473696 129.36,31.29 C131.8,30.64 132.72,28.9 131.91,25.91 C131.1,22.92 129.18,21.7 126.39,22.47 C125.23678,22.6837503 124.249357,23.4233928 123.72,24.47 C123.354852,25.6387727 123.455163,26.9034075 124,28 Z" id="Shape" fill="#FFFFFF" fill-rule="nonzero"></path>
            <path d="M152.67,24.41 C152.783607,26.373152 151.928032,28.2673712 150.38,29.48 C148.542223,30.6966369 146.373047,31.3149043 144.17,31.25 C142.75,31.31 141.33,31.42 139.93,31.57 C139.263333,27.03 138.44,22.5033333 137.46,17.99 C139.32,17.77 141.2,17.6133333 143.1,17.52 C145.581987,17.2659548 148.074925,17.8847691 150.15,19.27 C151.793088,20.4571594 152.737787,22.3840455 152.67,24.41 Z M149,24.29 C148.88,21.29 147.05,19.76 143.69,19.89 L141.69,20 C142.17,22.9666667 142.57,25.9366667 142.89,28.91 L144.31,28.84 C147.45,28.73 149.07,27.33 149,24.29 Z" id="Shape" fill="#FFFFFF" fill-rule="nonzero"></path>
            <path d="M164.74,33.63 C161.784335,32.8168772 158.777637,32.2021744 155.74,31.79 C156.12,27.2233333 156.32,22.62 156.34,17.98 C159.934,18.4174628 163.495113,19.0922703 167,20 C166.9,20.8 166.79,21.6 166.68,22.4 C164.493333,21.8266667 162.303333,21.3533333 160.11,20.98 C160.05,21.98 159.98,22.98 159.9,23.98 C161.86,24.32 163.823333,24.7466667 165.79,25.26 L165.4,27.63 C163.5,27.13 161.59,26.71 159.69,26.37 C159.57,27.56 159.45,28.74 159.31,29.92 C161.31,30.27 163.22,30.72 165.18,31.25 L164.74,33.63 Z" id="Path" fill="#FFFFFF"></path>
            <path d="M233,56.17 C232.152362,57.1319687 230.91013,57.6517157 229.63,57.58 C228.235992,57.3796937 226.959332,56.6881698 226.03,55.63 L225.15,54.75 L221.7,58.19 L219.65,56.13 L229.34,46.46 L232.43,49.55 C233.450068,50.4416259 234.125816,51.6622181 234.34,53 C234.412036,54.2078005 233.916503,55.3800677 233,56.17 Z M226.83,53.06 L227.51,53.74 C227.981301,54.2600548 228.610057,54.6113148 229.3,54.74 C230.479239,54.7527105 231.460697,53.8372693 231.53,52.66 C231.432566,52.04359 231.116672,51.4827884 230.64,51.08 L229.71,50.14 L226.83,53.06 Z" id="Shape" fill="#FFFFFF" fill-rule="nonzero"></path>
            <polygon id="Path" fill="#FFFFFF" points="228.15 64.66 237.84 55 239.9 57 231.9 65 235.82 69 234.12 70.69"></polygon>
            <path d="M241.72,78.27 L243.33,75.27 L239.8,71.73 L236.8,73.33 L234.59,71.12 L247.75,64.82 L250.26,67.34 L243.94,80.49 L241.72,78.27 Z M244.57,73.06 C246.01,70.32 246.826667,68.7733333 247.02,68.42 C247.21,68.06 247.37,67.79 247.5,67.59 C246.78,68.01 244.97,68.99 242.05,70.53 L244.57,73.06 Z" id="Shape" fill="#FFFFFF" fill-rule="nonzero"></path>
            <path d="M253.73,90.31 L251.13,87.7 L254.26,76.16 L254.2,76.1 C252.98,77.48 252.1,78.44 251.55,78.99 L247,83.55 L245.16,81.71 L254.86,72.04 L257.45,74.63 L254.39,86.09 C255.59,84.77 256.44,83.85 256.97,83.33 L261.56,78.75 L263.4,80.6 L253.73,90.31 Z" id="Path" fill="#FFFFFF"></path>
            <path d="M258,133.61 L261.75,137.29 L259.75,139.37 L249.97,129.77 L252.77,126.92 C253.708602,125.808352 254.976329,125.023902 256.39,124.68 C257.571917,124.54278 258.745797,124.995135 259.53,125.89 C260.089459,126.426538 260.464124,127.126846 260.6,127.89 C260.735038,128.692954 260.641475,129.517701 260.33,130.27 C263.98,130.96 266.33,131.39 267.42,131.58 L265.16,133.88 L259.16,132.53 L258,133.61 Z M256.29,132 L256.94,131.33 C257.473152,130.861352 257.855856,130.245546 258.04,129.56 C258.118993,129.00126 257.903375,128.44141 257.47,128.08 C257.111683,127.658449 256.551516,127.466611 256.01,127.58 C255.332324,127.821179 254.729179,128.234763 254.26,128.78 L253.65,129.4 L256.29,132 Z" id="Shape" fill="#FFFFFF" fill-rule="nonzero"></path>
            <polygon id="Path" fill="#FFFFFF" points="274.09 124.7 268.56 130.33 258.79 120.73 264.32 115.1 266.01 116.77 262.52 120.33 264.67 122.43 267.92 119.12 269.62 120.79 266.37 124.1 268.89 126.57 272.38 123.02"></polygon>
            <polygon id="Path" fill="#FFFFFF" points="276.09 122.66 266.32 113.06 268.32 110.99 276.39 118.91 280.28 114.91 281.99 116.59"></polygon>
            <polygon id="Path" fill="#FFFFFF" points="289.22 109.3 283.69 114.92 273.91 105.33 279.44 99.7 281.14 101.36 277.65 104.92 279.79 107.03 283.04 103.72 284.74 105.39 281.49 108.7 284.01 111.17 287.51 107.61"></polygon>
            <path d="M297.09,101.27 L294.09,99.7 L290.59,103.26 L292.22,106.26 L290,108.49 L283.58,95.4 L286.07,92.87 L299.29,99 L297.09,101.27 Z M291.85,98.48 L287.18,96.08 C286.83,95.89 286.55,95.73 286.36,95.61 C286.78,96.3166667 287.78,98.1233333 289.36,101.03 L291.85,98.48 Z" id="Shape" fill="#FFFFFF" fill-rule="nonzero"></path>
            <path d="M303.45,89.37 C304.285729,90.1321806 304.712111,91.2444807 304.6,92.37 C304.389832,93.6762992 303.740838,94.8719998 302.76,95.76 C301.847392,96.7556711 300.713585,97.5229602 299.45,98 L297.52,96.11 C298.305597,95.8023557 299.064783,95.431124 299.79,95 C300.304814,94.7026208 300.778786,94.3395788 301.2,93.92 C301.584096,93.5760375 301.852946,93.1221335 301.97,92.62 C302.027427,92.1997726 301.869581,91.7788497 301.55,91.5 C301.371088,91.3130205 301.135671,91.1900411 300.88,91.15 C300.585664,91.0974096 300.284336,91.0974096 299.99,91.15 C299.341673,91.3188505 298.703894,91.5258782 298.08,91.77 C297.395866,92.0419067 296.68025,92.2266901 295.95,92.32 C295.410724,92.3642701 294.867934,92.3065987 294.35,92.15 C293.793375,91.9655218 293.289224,91.6499991 292.88,91.23 C292.068073,90.5008568 291.636613,89.438802 291.71,88.35 C291.864466,87.1354603 292.445755,86.0154139 293.35,85.19 C293.847118,84.7247337 294.4016,84.3248345 295,84 C295.61506,83.6147205 296.260535,83.2802772 296.93,83 L297.88,85.25 C297.287602,85.492999 296.712874,85.7770216 296.16,86.1 C295.738287,86.351878 295.348762,86.6540955 295,87 C294.660519,87.3023505 294.443521,87.7185597 294.39,88.17 C294.366973,88.5463957 294.513742,88.9133184 294.79,89.17 C294.958205,89.3372629 295.169274,89.4549075 295.4,89.51 C295.660486,89.564761 295.929514,89.564761 296.19,89.51 C296.868312,89.3349343 297.536067,89.1212527 298.19,88.87 C299.184999,88.4363628 300.265563,88.2346119 301.35,88.28 C302.152088,88.3986049 302.891378,88.7823313 303.45,89.37 Z" id="Path" fill="#FFFFFF"></path>
            <polygon id="Path" fill="#FFFFFF" points="313.43 84.64 307.9 90.27 298.13 80.67 303.65 75 305.35 76.67 301.86 80.23 304.01 82.33 307.25 79.02 308.95 80.69 305.7 84 308.22 86.47 311.72 82.92"></polygon>
            <path d="M365.45,197.77 C365.93,193.95 366.556667,190.18 367.33,186.46 L367.24,186.41 C366.24,188.41 365.55,189.65 365.18,190.28 C364.086667,192.1 363.003333,193.926667 361.93,195.76 C360.99,195.19 360.05,194.61 359.12,194.01 C361.58,190.163333 364.043333,186.32 366.51,182.48 C367.73,183.26 368.96,184.02 370.21,184.73 C369.49,188.35 368.913333,192.016667 368.48,195.73 L368.55,195.73 C371.38,193.28 374.1,190.73 376.69,188.08 C377.98,188.68 379.28,189.24 380.59,189.78 C378.883333,194.006667 377.176667,198.24 375.47,202.48 C374.47,202.06 373.39,201.62 372.36,201.16 C373.233333,199.16 374.11,197.183333 374.99,195.23 C375.11,194.95 375.26,194.63 375.43,194.23 C375.6,193.83 376.08,192.91 376.85,191.37 L376.77,191.37 C374.103333,194.11 371.32,196.75 368.42,199.29 C367.43,198.82 366.44,198.31 365.45,197.77 Z" id="Path" fill="#FFFFFF"></path>
            <path d="M395.51,201.3 C395.276938,203.251905 394.17436,204.993979 392.51,206.04 C388.47579,207.700894 383.828899,206.416722 381.22,202.92 C380.31326,201.172425 380.254337,199.106414 381.06,197.31 C381.60862,195.462306 382.877075,193.912774 384.58,193.01 C386.327125,192.27037 388.285999,192.2027 390.08,192.82 C391.933436,193.205724 393.572815,194.277213 394.67,195.82 C395.65256,197.467718 395.953903,199.433627 395.51,201.3 Z M384.42,198.47 C383.944869,199.61911 383.923426,200.905694 384.36,202.07 C384.898812,203.108633 385.881774,203.844935 387.03,204.07 C389.74,204.8 391.44,203.58 392.1,200.58 C392.76,197.58 391.89,195.81 389.48,195.15 C388.458523,194.788457 387.32894,194.902149 386.4,195.46 C385.410623,196.20309 384.710608,197.267255 384.42,198.47 Z" id="Shape" fill="#FFFFFF" fill-rule="nonzero"></path>
            <path d="M412.47,209.77 C410.97,209.77 409.47,209.77 407.96,209.66 C405.731602,206.15715 403.72758,202.516511 401.96,198.76 L401.87,198.76 C401.77,200.59 401.69,201.9 401.6,202.67 C401.35,204.81 401.09,206.94 400.85,209.07 C399.79,208.95 398.75,208.8 397.7,208.64 C398.366667,204.133333 399.05,199.62 399.75,195.1 C401.02,195.29 402.3,195.46 403.57,195.6 C405.31869,199.283191 407.295877,202.853485 409.49,206.29 L409.57,206.29 C409.51,204.51 409.5,203.29 409.52,202.51 C409.593333,200.35 409.666667,198.19 409.74,196.03 C410.65,196.03 411.57,196.03 412.48,196.03 C412.466667,200.63 412.463333,205.21 412.47,209.77 Z" id="Path" fill="#FFFFFF"></path>
            <path d="M416.67,209.69 C416.47,205.13 416.273333,200.566667 416.08,196 C417.08,196 418.08,195.9 419.13,195.83 C419.483333,200.376667 419.843333,204.926667 420.21,209.48 C419.03,209.573333 417.85,209.643333 416.67,209.69 Z" id="Path" fill="#FFFFFF"></path>
            <path d="M430.77,208.09 C429.61,208.31 428.44,208.51 427.27,208.68 C426.696667,204.973333 426.13,201.256667 425.57,197.53 C424.25,197.73 422.92,197.9 421.57,198.03 C421.49,197.23 421.41,196.43 421.32,195.63 C424.931473,195.260028 428.515497,194.658793 432.05,193.83 C432.23,194.61 432.42,195.39 432.6,196.18 C431.29,196.49 429.98,196.76 428.66,197.01 L430.77,208.09 Z" id="Path" fill="#FFFFFF"></path>
            <path d="M449.4,195.21 C450.325773,196.940581 450.410475,198.999215 449.63,200.8 C447.240036,204.445105 442.687082,206.012111 438.56,204.61 C436.835271,203.664105 435.63262,201.987014 435.29,200.05 C434.699719,198.220045 434.861621,196.230444 435.74,194.52 C437.994616,191.421252 441.950441,190.069312 445.63,191.14 C447.372653,191.948574 448.726962,193.410653 449.4,195.21 Z M438.64,199.15 C438.910363,200.363934 439.623431,201.433537 440.64,202.15 C441.667342,202.700768 442.889937,202.752324 443.96,202.29 C446.61,201.37 447.33,199.4 446.19,196.55 C445.05,193.7 443.31,192.73 440.95,193.55 C439.908187,193.833956 439.046873,194.566989 438.6,195.55 C438.197045,196.718587 438.21118,197.990655 438.64,199.15 Z" id="Shape" fill="#FFFFFF" fill-rule="nonzero"></path>
            <path d="M456.15,193.75 C456.97,195.303333 457.793333,196.85 458.62,198.39 C457.55,198.96 456.47,199.5 455.38,200.02 L449.38,187.7 C450.66,187.08 451.93,186.43 453.19,185.7 C454.506011,184.854315 456.026517,184.380885 457.59,184.33 C458.805104,184.397891 459.901918,185.080102 460.5,186.14 C460.933945,186.793516 461.115226,187.582621 461.01,188.36 C460.874843,189.251986 460.490016,190.087513 459.9,190.77 C462.312732,191.701944 464.772794,192.506387 467.27,193.18 C466.13,193.94 464.99,194.67 463.84,195.37 C461.746667,194.59 459.71,193.746667 457.73,192.84 L456.15,193.75 Z M455,191.67 L455.95,191.16 C456.687524,190.820316 457.317224,190.284033 457.77,189.61 C458.048222,189.097493 458.017363,188.472601 457.69,187.99 C457.437545,187.477584 456.9111,187.157817 456.34,187.17 C455.551098,187.254614 454.791864,187.517952 454.12,187.94 L453.26,188.4 L455,191.67 Z" id="Shape" fill="#FFFFFF" fill-rule="nonzero"></path>
            <path d="M386,28.77 C386.824642,30.5490863 386.824642,32.6009137 386,34.38 C384.94182,36.2313512 383.319535,37.6959627 381.37,38.56 C380.15,39.2 378.94,39.88 377.75,40.56 C375.403333,36.64 373.04,32.73 370.66,28.83 C372.24,27.89 373.83,27 375.45,26.16 C377.450008,24.9626218 379.822942,24.549318 382.11,25 C383.95912,25.5208484 385.421486,26.9381024 386,28.77 Z M382.81,30.19 C381.63,27.5 379.55,26.76 376.68,28.19 L374.99,29.08 C376.43,31.69 377.85,34.3 379.28,36.91 C379.68,36.69 380.08,36.47 380.49,36.26 C383.25,34.9 384.06,33 382.85,30.19 L382.81,30.19 Z" id="Shape" fill="#FFFFFF" fill-rule="nonzero"></path>
            <path d="M399.37,32 C396.663224,32.5952013 393.99229,33.3430629 391.37,34.24 C389.876667,29.9333333 388.376667,25.62 386.87,21.3 C389.973817,20.232212 393.13553,19.3407891 396.34,18.63 C396.51,19.41 396.69,20.18 396.86,20.96 C394.9,21.3866667 392.953333,21.89 391.02,22.47 L391.89,25.35 C393.62,24.83 395.37,24.35 397.12,23.98 L397.66,26.3 C395.95,26.68 394.25,27.13 392.57,27.63 L393.57,31.01 C395.29,30.4966667 397.03,30.0466667 398.79,29.66 C399,30.43 399.19,31.21 399.37,32 Z" id="Path" fill="#FFFFFF"></path>
            <path d="M411.7,20.93 C411.830613,22.2454683 411.302863,23.5405143 410.29,24.39 C409.043229,25.3167187 407.551179,25.8558041 406,25.94 L404.62,26.11 L405.28,30.94 C404.28,31.08 403.28,31.23 402.28,31.41 C401.48,26.91 400.67,22.4166667 399.85,17.93 C401.63,17.61 403.43,17.35 405.22,17.15 C406.833132,16.8544885 408.498541,17.0858926 409.97,17.81 C411.066865,18.462166 411.727834,19.6542029 411.7,20.93 Z M404.31,23.76 L405.39,23.62 C406.194444,23.5802493 406.971138,23.3132609 407.63,22.85 C408.104486,22.4623601 408.346256,21.8579368 408.27,21.25 C408.267016,20.6621363 407.965708,20.1160157 407.47,19.8 C406.803266,19.4856238 406.053926,19.3910809 405.33,19.53 L403.75,19.73 C403.94,21.07 404.12,22.41 404.31,23.76 Z" id="Shape" fill="#FFFFFF" fill-rule="nonzero"></path>
            <path d="M414.79,30.29 C414.79,25.73 414.766667,21.1666667 414.72,16.6 C415.92,16.6 417.12,16.62 418.32,16.66 C418.193333,20.4266667 418.056667,24.19 417.91,27.95 C419.91,28.03 421.91,28.19 423.91,28.43 C423.82,29.22 423.72,30.02 423.63,30.81 C420.696303,30.4609503 417.744388,30.2873083 414.79,30.29 Z" id="Path" fill="#FFFFFF"></path>
            <path d="M441,27.82 C440.473522,29.670291 439.237025,31.2374796 437.56,32.18 C435.850708,32.9711976 433.908512,33.0994895 432.11,32.54 C430.260982,32.2104458 428.602211,31.2009144 427.46,29.71 C426.429227,28.0856129 426.070617,26.1240134 426.46,24.24 C426.583931,22.2795558 427.610992,20.4877406 429.24,19.39 C431.15864,18.3778042 433.403699,18.1796048 435.47,18.84 C437.618805,19.2094134 439.52877,20.427466 440.77,22.22 C441.697515,23.9536809 441.782222,26.0160977 441,27.82 Z M429.87,24.82 C429.559293,26.012668 429.665132,27.2756763 430.17,28.4 C430.703733,29.3329409 431.629392,29.9757594 432.69,30.15 C435.11,30.75 436.75,29.67 437.64,26.71 C438.53,23.75 437.64,21.85 434.88,21.17 C433.755842,20.8078645 432.528232,20.9732612 431.54,21.62 C430.588208,22.438507 429.986859,23.5910929 429.86,24.84 L429.87,24.82 Z" id="Shape" fill="#FFFFFF" fill-rule="nonzero"></path>
            <path d="M449.16,29.86 C450.98,28.63 452.86,27.47 454.8,26.36 C455.99,26.98 457.16,27.62 458.32,28.3 C455.288492,29.7071981 452.343299,31.2933279 449.5,33.05 C448.72,34.65 447.93,36.24 447.15,37.83 C446.22,37.37 445.29,36.94 444.35,36.52 C445.05,34.92 445.76,33.32 446.46,31.73 C446.004117,28.3962045 445.359752,25.0909099 444.53,21.83 C445.77,22.28 447.01,22.76 448.23,23.28 C448.623333,25.48 448.933333,27.6733333 449.16,29.86 Z" id="Path" fill="#FFFFFF"></path>
            <path d="M491.8,77.24 C490.068513,78.0875499 488.069722,78.2063969 486.25,77.57 C484.503874,76.8026149 483.106307,75.4121775 482.33,73.67 C481.343034,72.0287664 480.98755,70.0842713 481.33,68.2 C481.831441,66.3256376 483.058445,64.7280135 484.74,63.76 C486.309899,62.5645749 488.348624,62.1723699 490.25,62.7 C492.291155,63.5162236 493.931581,65.099217 494.82,67.11 C496.06,69.47 496.36,71.58 495.82,73.33 C495.148881,75.1797937 493.667697,76.620448 491.8,77.24 Z M486.6,66.82 C485.496829,67.3808339 484.618328,68.3016726 484.11,69.43 C483.780847,70.4728298 483.91944,71.6071031 484.49,72.54 C485.67,74.79 487.57,75.31 490.37,74.01 C493.17,72.71 494,70.77 492.68,68.24 C492.202479,67.1496114 491.264127,66.3285536 490.12,66 C488.885127,65.8168598 487.62681,66.1099906 486.6,66.82 Z" id="Shape" fill="#FFFFFF" fill-rule="nonzero"></path>
            <path d="M498.62,90.11 C497.347969,90.4836467 495.973448,90.2027501 494.95,89.36 C493.795503,88.2875189 492.987643,86.8946565 492.63,85.36 L492.21,84.03 L487.58,85.55 C487.26,84.55 486.92,83.61 486.58,82.65 L499.41,77.84 C500.076667,79.54 500.66,81.2566667 501.16,82.99 C501.735813,84.5236827 501.812804,86.1999925 501.38,87.78 C500.957107,89.0041817 499.897777,89.8984707 498.62,90.11 Z M494.47,83.33 L494.8,84.33 C494.987814,85.1373581 495.404459,85.8734305 496,86.45 C496.470493,86.8486239 497.114538,86.9736444 497.7,86.78 C498.262608,86.6770925 498.737994,86.3027724 498.97,85.78 C499.15454,85.0642104 499.109057,84.3084898 498.84,83.62 L498.36,82.1 L494.47,83.33 Z" id="Shape" fill="#FFFFFF" fill-rule="nonzero"></path>
            <path d="M491.17,103.12 C490.927829,100.368166 490.540624,97.631028 490.01,94.92 C494.49,94.04 498.966667,93.15 503.44,92.25 C504.070639,95.4328359 504.527979,98.6475685 504.81,101.88 L502.44,102.1 C502.27,100.1 502.02,98.1 501.72,96.16 L498.72,96.63 C498.986667,98.41 499.206667,100.19 499.38,101.97 L497.01,102.2 C496.85,100.46 496.63,98.73 496.36,97 L492.88,97.56 C493.15,99.33 493.37,101.12 493.53,102.91 L491.17,103.12 Z" id="Path" fill="#FFFFFF"></path>
            <path d="M496.72,109.09 L491.47,109.16 C491.47,108.16 491.42,107.16 491.37,106.16 C495.93,105.926667 500.49,105.686667 505.05,105.44 C505.14,107.08 505.17,108.72 505.17,110.36 C505.273833,112.104922 504.867283,113.842319 504,115.36 C503.391573,116.164743 502.472617,116.676343 501.468075,116.769567 C500.463534,116.862792 499.466126,116.529037 498.72,115.85 C498.090457,115.233534 497.623239,114.470869 497.36,113.63 C494.19,115.82 492.06,117.03 491.11,117.63 C491.22,116.51 491.3,115.38 491.36,114.26 C493.173333,113.206667 494.96,112.076667 496.72,110.87 C496.73,110.24 496.73,109.67 496.72,109.09 Z M499.08,109.09 C499.08,109.45 499.08,109.81 499.08,110.17 C499.028203,110.975755 499.17231,111.782068 499.5,112.52 C499.787657,113.03129 500.333482,113.342641 500.92,113.33 C501.501098,113.388362 502.059291,113.087491 502.33,112.57 C502.676866,111.79143 502.831214,110.940802 502.78,110.09 C502.78,109.74 502.78,109.39 502.78,109.03 L499.08,109.09 Z" id="Shape" fill="#FFFFFF" fill-rule="nonzero"></path>
            <path d="M489.37,128.09 C490.51,128 491.65,127.89 492.79,127.77 C493.19,125.98 493.52,124.18 493.79,122.38 C492.79,121.85 491.74,121.38 490.71,120.85 C490.856667,119.77 490.986667,118.68 491.1,117.58 C495.5378,119.731737 499.845234,122.142564 504,124.8 C503.76,126.25 503.5,127.69 503.19,129.13 C498.34172,130.149727 493.436043,130.874391 488.5,131.3 C488.84,130.24 489.12,129.17 489.37,128.09 Z M495.37,127.52 C498.48,127.11 500.24,126.79 500.65,126.73 C501.06,126.67 501.37,126.62 501.65,126.6 C500.9,126.21 499.09,125.14 496.16,123.6 C495.86,124.88 495.61,126.21 495.33,127.52 L495.37,127.52 Z" id="Shape" fill="#FFFFFF" fill-rule="nonzero"></path>
            <path d="M486.18,138.38 C486.56,137.38 486.91,136.44 487.24,135.47 L497.93,139.09 C498.42,137.66 498.87,136.22 499.28,134.78 L501.61,135.43 C500.419776,139.588534 498.939481,143.658511 497.18,147.61 L494.97,146.61 C495.59,145.22 496.17,143.82 496.72,142.4 L486.18,138.38 Z" id="Path" fill="#FFFFFF"></path>
            <path d="M479.56,151.64 C481.076089,149.215908 482.454924,146.708631 483.69,144.13 L496.06,150.03 C494.606371,153.056752 492.987256,156.001205 491.21,158.85 L489.21,157.6 C490.31,155.833333 491.343333,154.036667 492.31,152.21 L489.65,150.81 C488.776667,152.45 487.85,154.066667 486.87,155.66 L484.87,154.42 C485.823333,152.873333 486.723333,151.3 487.57,149.7 L484.45,148.05 C483.57,149.7 482.64,151.31 481.65,152.91 L479.56,151.64 Z" id="Path" fill="#FFFFFF"></path>
            <path d="M136.84,207.32 C135.68,207.06 134.53,206.78 133.38,206.48 C134.346667,202.84 135.31,199.203333 136.27,195.57 C135,195.24 133.74,194.86 132.49,194.46 C132.73,193.69 132.98,192.92 133.23,192.16 C136.586514,193.244716 140.01941,194.077034 143.5,194.65 C143.37,195.44 143.25,196.24 143.12,197.04 C141.83,196.82 140.54,196.58 139.26,196.3 C138.42,199.973333 137.613333,203.646667 136.84,207.32 Z" id="Path" fill="#FFFFFF"></path>
            <path d="M153.41,209.24 C150.208943,209.196599 147.013301,208.962853 143.84,208.54 C144.44,204.02 145.036667,199.493333 145.63,194.96 C148.282955,195.311776 150.954142,195.508776 153.63,195.55 C153.63,196.34 153.63,197.13 153.63,197.93 C151.89,197.93 150.14,197.81 148.4,197.66 C148.32,198.66 148.23,199.66 148.14,200.66 C149.83,200.81 151.52,200.9 153.21,200.94 C153.21,201.73 153.21,202.52 153.21,203.32 C151.46,203.32 149.72,203.19 147.98,203.03 C147.88,204.21 147.77,205.38 147.67,206.55 C149.67,206.72 151.59,206.83 153.55,206.86 C153.43,207.65 153.42,208.44 153.41,209.24 Z" id="Path" fill="#FFFFFF"></path>
            <path d="M166.14,204.62 C166.342693,205.794232 165.8906,206.985764 164.96,207.73 C163.700424,208.682957 162.169303,209.208513 160.59,209.23 C158.983555,209.378296 157.364258,209.166489 155.85,208.61 C155.85,207.71 155.85,206.81 155.85,205.91 C156.751486,206.252583 157.681879,206.513629 158.63,206.69 C159.318093,206.823695 160.020643,206.867394 160.72,206.82 C161.322449,206.807425 161.910116,206.631125 162.42,206.31 C162.782305,206.051025 162.967944,205.610132 162.9,205.17 C162.885779,204.905358 162.767087,204.657184 162.57,204.48 C162.333201,204.257161 162.059015,204.077755 161.76,203.95 C161.41,203.79 160.71,203.54 159.68,203.18 C158.914073,202.948172 158.183839,202.611659 157.51,202.18 C157.047494,201.850905 156.659138,201.428482 156.37,200.94 C156.074005,200.433783 155.921866,199.856347 155.93,199.27 C155.868972,198.170029 156.319205,197.103493 157.15,196.38 C158.114677,195.600146 159.309907,195.160723 160.55,195.13 C161.244616,195.054414 161.945384,195.054414 162.64,195.13 C163.365,195.232506 164.083019,195.379449 164.79,195.57 C164.583333,196.356667 164.363333,197.146667 164.13,197.94 C163.471812,197.767313 162.803976,197.633746 162.13,197.54 C161.634833,197.485422 161.135167,197.485422 160.64,197.54 C160.164689,197.547501 159.706135,197.716814 159.34,198.02 C159.061308,198.275005 158.914053,198.64314 158.94,199.02 C158.945672,199.258655 159.026121,199.489508 159.17,199.68 C159.348809,199.893387 159.570199,200.067093 159.82,200.19 C160.493019,200.503992 161.188229,200.768038 161.9,200.98 C163.028408,201.27361 164.090636,201.779271 165.03,202.47 C165.65112,203.026311 166.046155,203.791469 166.14,204.62 Z" id="Path" fill="#FFFFFF"></path>
            <path d="M176,206.48 C174.85,206.78 173.7,207.06 172.54,207.32 C171.74,203.64 170.933333,199.973333 170.12,196.32 C168.84,196.6 167.56,196.84 166.27,197.06 L165.88,194.67 C169.36059,194.097034 172.793486,193.264716 176.15,192.18 C176.4,192.94 176.65,193.71 176.89,194.48 C175.64,194.88 174.38,195.26 173.11,195.59 C174.056667,199.196667 175.02,202.826667 176,206.48 Z" id="Path" fill="#FFFFFF"></path>
            <path d="M68.62,142.19 C67.8066667,140.55 67.0633333,138.883333 66.39,137.19 C65.5981269,135.54007 65.2336288,133.717579 65.33,131.89 C65.4443577,130.771744 66.24199,129.842503 67.33,129.56 C68.023421,129.318681 68.7812632,129.340028 69.46,129.62 C70.136207,129.883959 70.6867429,130.395171 71,131.05 L71.09,131.05 C70.9163018,130.232774 71.0441733,129.380297 71.45,128.65 C71.8981248,128.034836 72.5502464,127.598907 73.29,127.42 C74.3900781,127.059479 75.5970125,127.261257 76.52,127.96 C77.585629,128.814047 78.3781707,129.961146 78.8,131.26 C79.45,132.92 80.17,134.57 80.97,136.19 L68.62,142.19 Z M72,136.66 C71.74,136.05 71.48,135.43 71.23,134.82 C71.0198611,134.155263 70.6568152,133.549044 70.17,133.05 C69.7868334,132.738451 69.2610227,132.668859 68.81,132.87 C68.358979,133.00592 68.0349379,133.401092 67.99,133.87 C67.9869266,134.637155 68.1542902,135.395415 68.48,136.09 C68.71,136.67 68.96,137.25 69.21,137.83 L72,136.66 Z M74.12,135.75 L77.39,134.33 C77.12,133.7 76.86,133.07 76.61,132.43 C76.4093124,131.783515 76.0191334,131.212181 75.49,130.79 C75.0324997,130.495641 74.4577978,130.450566 73.96,130.67 C72.89,131.04 72.64,132.11 73.33,133.84 C73.62,134.48 73.88,135.12 74.16,135.75 L74.12,135.75 Z" id="Shape" fill="#FFFFFF" fill-rule="nonzero"></path>
            <path d="M60.87,113 L69.72,112.44 C70.6537495,112.366829 71.5892778,112.5574 72.42,112.99 C73.2293849,113.428996 73.8983793,114.087591 74.35,114.89 C74.8676185,115.818837 75.2067928,116.83636 75.35,117.89 C75.6733501,119.39428 75.486886,120.963394 74.82,122.35 C74.1425688,123.584995 72.9588037,124.461858 71.58,124.75 L63,127 C62.7,125.82 62.44,124.63 62.2,123.44 L70.42,121.79 C71.2512486,121.692434 72.0152764,121.285429 72.56,120.65 C73.2707136,119.163141 72.996793,117.392581 71.87,116.19 C71.1449377,115.760377 70.2889015,115.60764 69.46,115.76 L61.15,116.68 C61.05,115.43 61,114.23 60.87,113 Z" id="Path" fill="#FFFFFF"></path>
            <path d="M74.42,108.7 L60.72,108.83 C60.72,107.62 60.72,106.41 60.77,105.2 L74.46,105.71 C74.42,106.71 74.41,107.7 74.42,108.7 Z" id="Path" fill="#FFFFFF"></path>
            <path d="M74.69,102.16 L61.05,100.89 C61.16,99.68 61.3,98.48 61.47,97.27 L72.66,98.85 C72.94,96.85 73.31,94.93 73.76,93 L76.1,93.54 C75.4325821,96.3775396 74.9614664,99.2576933 74.69,102.16 Z" id="Path" fill="#FFFFFF"></path>
            <path d="M74.65,77 C76.4486259,77.7791374 77.8205076,79.3006126 78.41,81.17 C78.8988841,83.2220314 78.7202185,85.3765283 77.9,87.32 C77.46,88.6 77.06,89.89 76.71,91.18 L63.5,87.51 C63.98,85.77 64.5233333,84.04 65.13,82.32 C65.7712822,80.0672792 67.229639,78.134689 69.22,76.9 C70.9279466,76.0023172 72.9762642,76.0400394 74.65,77 Z M73.24,80.2 C70.56,79.03 68.52,79.91 67.43,82.94 C67.22,83.54 67.02,84.13 66.82,84.74 L75.3,87.51 C75.44,87.08 75.58,86.66 75.73,86.23 C76.74,83.4 76,81.42 73.24,80.2 Z" id="Shape" fill="#FFFFFF" fill-rule="nonzero"></path>
            <path d="M146.28,112.46 C146.28,118.04 144.69,122.313333 141.51,125.28 C138.33,128.246667 133.746667,129.73 127.76,129.73 L118.16,129.73 L118.16,95.84 L128.8,95.84 C134.333333,95.84 138.63,97.3 141.69,100.22 C144.75,103.14 146.28,107.22 146.28,112.46 Z M138.81,112.65 C138.81,105.37 135.596667,101.73 129.17,101.73 L125.34,101.73 L125.34,123.8 L128.43,123.8 C135.35,123.8 138.81,120.083333 138.81,112.65 Z" id="Shape" fill="#263238" fill-rule="nonzero"></path>
            <polygon id="Path" fill="#263238" points="172.82 129.73 153.3 129.73 153.3 95.84 172.82 95.84 172.82 101.73 160.49 101.73 160.49 109.17 172 109.17 172 115.06 160.49 115.06 160.49 123.8 172.82 123.8"></polygon>
            <path d="M199.22,95.84 L206.48,95.84 L195,129.73 L187.16,129.73 L175.66,95.84 L182.92,95.84 L189.25,116 C189.61,117.19 189.98,118.57 190.36,120.16 C190.74,121.75 190.97,122.84 191.06,123.46 C191.478258,120.93836 192.059476,118.446473 192.8,116 L199.22,95.84 Z" id="Path" fill="#263238"></path>
            <path d="M394.15,112.74 C394.15,118.353333 392.76,122.663333 389.98,125.67 C387.19,128.67 383.21,130.19 377.98,130.19 C372.75,130.19 368.8,128.69 365.98,125.67 C363.16,122.65 361.81,118.33 361.81,112.67 C361.81,107.01 363.2,102.67 365.99,99.75 C368.78,96.83 372.78,95.29 377.99,95.29 C383.2,95.29 387.18,96.79 389.94,99.78 C392.7,102.77 394.15,107.11 394.15,112.74 Z M369.41,112.74 C369.41,116.52 370.13,119.38 371.57,121.29 C373.106372,123.258395 375.5186,124.337155 378.01,124.17 C383.75,124.17 386.616667,120.36 386.61,112.74 C386.603333,105.12 383.753333,101.303333 378.06,101.29 C375.560814,101.12685 373.141357,102.203827 371.59,104.17 C370.14,106.1 369.41,109 369.41,112.74 Z" id="Shape" fill="#263238" fill-rule="nonzero"></path>
            <path d="M424.58,106.41 C424.58,110.063333 423.443333,112.853333 421.17,114.78 C418.896667,116.706667 415.653333,117.673333 411.44,117.68 L408.36,117.68 L408.36,129.68 L401.17,129.68 L401.17,95.84 L412,95.84 C416.113333,95.84 419.236667,96.7233333 421.37,98.49 C423.503333,100.256667 424.573333,102.896667 424.58,106.41 Z M408.36,111.79 L410.72,111.79 C412.486549,111.927912 414.248022,111.466406 415.72,110.48 C416.847404,109.542426 417.460276,108.123535 417.37,106.66 C417.483233,105.273906 416.978116,103.908625 415.99,102.93 C414.738666,102.028698 413.206915,101.603212 411.67,101.73 L408.4,101.73 L408.36,111.79 Z" id="Shape" fill="#263238" fill-rule="nonzero"></path>
            <path d="M451,120.32 C451.120332,123.121433 449.889238,125.8105 447.69,127.55 C445.49,129.31 442.426667,130.19 438.5,130.19 C435.19225,130.267671 431.910967,129.583357 428.91,128.19 L428.91,121.52 C430.782439,122.391309 432.72205,123.110303 434.71,123.67 C436.126999,124.065602 437.588989,124.277338 439.06,124.3 C440.333676,124.379486 441.600977,124.065279 442.69,123.4 C443.53875,122.774822 444.013036,121.76226 443.95,120.71 C443.963044,120.071387 443.766329,119.446113 443.39,118.93 C442.938634,118.341235 442.386825,117.83682 441.76,117.44 C440.34391,116.586354 438.877951,115.818312 437.37,115.14 C435.701016,114.41425 434.134343,113.472901 432.71,112.34 C431.691252,111.464406 430.849451,110.40197 430.23,109.21 C429.586015,107.91613 429.266818,106.484893 429.3,105.04 C429.158558,102.347211 430.265156,99.73933 432.3,97.97 C434.3,96.25 437.106667,95.39 440.72,95.39 C442.423425,95.3818935 444.120775,95.5936421 445.77,96.02 C447.479011,96.4786217 449.150531,97.0669967 450.77,97.78 L448.45,103.37 C446.991477,102.746103 445.49116,102.224835 443.96,101.81 C442.818687,101.523021 441.646828,101.37528 440.47,101.37 C439.339736,101.311313 438.226869,101.666861 437.34,102.37 C436.622785,102.991114 436.222604,103.901618 436.25,104.85 C436.236869,105.433793 436.389428,106.009357 436.69,106.51 C437.064705,107.055477 437.543968,107.521144 438.1,107.88 C439.568481,108.759253 441.087815,109.550643 442.65,110.25 C445.823333,111.77 447.996667,113.29 449.17,114.81 C450.377391,116.391198 451.021529,118.330649 451,120.32 Z" id="Path" fill="#263238"></path>
            <g id="Monitor" transform="translate(233.000000, 225.000000)">
                <rect id="Rectangle" fill="#BBBBBB" x="37.69" y="32.22" width="10.16" height="40.64"></rect>
                <rect id="Rectangle" fill="#D5D6D5" x="0.95" y="0.84" width="83.65" height="56.94" rx="0.63"></rect>
                <rect id="Rectangle" fill="#282130" x="1.85" y="1.63" width="81.84" height="52.88"></rect>
                <path d="M25.32,72.85 L60.23,72.85 C60.992153,72.85 61.61,73.467847 61.61,74.23 L61.61,74.82 L23.93,74.82 L23.93,74.23 C23.9299903,73.862262 24.0767547,73.5097296 24.3377217,73.25064 C24.5986888,72.9915504 24.9522717,72.8473352 25.32,72.85 Z" id="Path" fill="#D5D6D5"></path>
            </g>
            <path d="M253.49,231.91 L241,231.91 C240.527291,231.904597 240.145403,231.522709 240.14,231.05 C240.145478,230.578945 240.528913,230.199968 241,230.2 L253.53,230.2 C254.001087,230.199968 254.384522,230.578945 254.39,231.05 C254.387447,231.284292 254.290499,231.507649 254.121098,231.669521 C253.951697,231.831393 253.724166,231.918093 253.49,231.91 Z" id="Path" fill="#FA8C0B"></path>
            <path d="M253.49,234.88 L241,234.88 C240.527291,234.874597 240.145403,234.492709 240.14,234.02 C240.145478,233.548945 240.528913,233.169968 241,233.17 L253.53,233.17 C254.001087,233.169968 254.384522,233.548945 254.39,234.02 C254.387447,234.254292 254.290499,234.477649 254.121098,234.639521 C253.951697,234.801393 253.724166,234.888093 253.49,234.88 Z" id="Path" fill="#FFFFFF"></path>
            <rect id="Rectangle" fill="#A46BA1" x="240.1" y="236.14" width="8.26" height="1.71" rx="0.85"></rect>
            <rect id="Rectangle" fill="#AF214E" x="249.84" y="236.14" width="14.54" height="1.71" rx="0.85"></rect>
            <path d="M269.46,234.88 L256.93,234.88 C256.457291,234.874597 256.075403,234.492709 256.07,234.02 C256.075478,233.548945 256.458913,233.169968 256.93,233.17 L269.46,233.17 C269.929442,233.17 270.31,233.550558 270.31,234.02 C270.310032,234.491087 269.931055,234.874522 269.46,234.88 Z" id="Path" fill="#A46BA1"></path>
            <path d="M259.3,268.55 L246.77,268.55 C246.298913,268.550032 245.915478,268.171055 245.91,267.7 C245.915403,267.227291 246.297291,266.845403 246.77,266.84 L259.3,266.84 C259.772709,266.845403 260.154597,267.227291 260.16,267.7 C260.154522,268.171055 259.771087,268.550032 259.3,268.55 Z" id="Path" fill="#FFFFFF"></path>
            <path d="M259.3,271.52 L246.77,271.52 C246.297291,271.514597 245.915403,271.132709 245.91,270.66 C245.915478,270.188945 246.298913,269.809968 246.77,269.81 L259.3,269.81 C259.771087,269.809968 260.154522,270.188945 260.16,270.66 C260.154597,271.132709 259.772709,271.514597 259.3,271.52 Z" id="Path" fill="#A46BA1"></path>
            <path d="M253.32,274.49 L246.77,274.49 C246.297291,274.484597 245.915403,274.102709 245.91,273.63 C245.915478,273.158945 246.298913,272.779968 246.77,272.78 L253.32,272.78 C253.789442,272.78 254.17,273.160558 254.17,273.63 C254.170032,274.101087 253.791055,274.484522 253.32,274.49 Z" id="Path" fill="#A46BA1"></path>
            <path d="M269.33,274.49 L256.5,274.49 C256.028945,274.484522 255.649968,274.101087 255.65,273.63 C255.65,273.404566 255.739553,273.188365 255.898959,273.028959 C256.058365,272.869553 256.274566,272.78 256.5,272.78 L269.33,272.78 C269.801087,272.779968 270.184522,273.158945 270.19,273.63 C270.184597,274.102709 269.802709,274.484597 269.33,274.49 Z" id="Path" fill="#FFFFFF"></path>
            <path d="M275.27,271.52 L262.73,271.52 C262.258945,271.514522 261.879968,271.131087 261.88,270.66 C261.88,270.190558 262.260558,269.81 262.73,269.81 L275.27,269.81 C275.739442,269.81 276.12,270.190558 276.12,270.66 C276.120032,271.131087 275.741055,271.514522 275.27,271.52 Z" id="Path" fill="#FA8C0B"></path>
            <path d="M258.84,251.18 L246.31,251.18 C245.840558,251.18 245.46,250.799442 245.46,250.33 C245.459968,249.858913 245.838945,249.475478 246.31,249.47 L258.84,249.47 C259.312709,249.475403 259.694597,249.857291 259.7,250.33 C259.694522,250.801055 259.311087,251.180032 258.84,251.18 Z" id="Path" fill="#FFFFFF"></path>
            <path d="M258.84,254.15 L246.31,254.15 C245.838945,254.144522 245.459968,253.761087 245.46,253.29 C245.46,252.820558 245.840558,252.44 246.31,252.44 L258.84,252.44 C259.311087,252.439968 259.694522,252.818945 259.7,253.29 C259.694597,253.762709 259.312709,254.144597 258.84,254.15 Z" id="Path" fill="#FA8C0B"></path>
            <path d="M274.81,254.15 L262.28,254.15 C261.807291,254.144597 261.425403,253.762709 261.42,253.29 C261.425478,252.818945 261.808913,252.439968 262.28,252.44 L274.81,252.44 C275.281087,252.439968 275.664522,252.818945 275.67,253.29 C275.664597,253.762709 275.282709,254.144597 274.81,254.15 Z" id="Path" fill="#FFFFFF"></path>
            <path d="M258.84,241.93 L246.31,241.93 C245.838945,241.924522 245.459968,241.541087 245.46,241.07 C245.46,240.600558 245.840558,240.22 246.31,240.22 L258.84,240.22 C259.311087,240.219968 259.694522,240.598945 259.7,241.07 C259.694597,241.542709 259.312709,241.924597 258.84,241.93 Z" id="Path" fill="#FFFFFF"></path>
            <path d="M276.21,247.89 L256.21,247.89 C255.740558,247.89 255.36,247.509442 255.36,247.04 C255.359968,246.568913 255.738945,246.185478 256.21,246.18 L276.21,246.18 C276.681055,246.185478 277.060032,246.568913 277.06,247.04 C277.06,247.265434 276.970447,247.481635 276.811041,247.641041 C276.651635,247.800447 276.435434,247.89 276.21,247.89 Z" id="Path" fill="#A46BA1"></path>
            <path d="M252.86,244.9 L246.31,244.9 C245.838945,244.894522 245.459968,244.511087 245.46,244.04 C245.46,243.570558 245.840558,243.19 246.31,243.19 L252.86,243.19 C253.331087,243.189968 253.714522,243.568945 253.72,244.04 C253.714597,244.512709 253.332709,244.894597 252.86,244.9 Z" id="Path" fill="#A46BA1"></path>
            <path d="M252.86,247.89 L246.31,247.89 C245.840558,247.89 245.46,247.509442 245.46,247.04 C245.459968,246.568913 245.838945,246.185478 246.31,246.18 L252.86,246.18 C253.332709,246.185403 253.714597,246.567291 253.72,247.04 C253.714522,247.511055 253.331087,247.890032 252.86,247.89 Z" id="Path" fill="#AF214E"></path>
            <path d="M253.23,261.84 L240.69,261.84 C240.220558,261.84 239.84,261.459442 239.84,260.99 C239.839968,260.518913 240.218945,260.135478 240.69,260.13 L253.23,260.13 C253.701055,260.135478 254.080032,260.518913 254.08,260.99 C254.08,261.459442 253.699442,261.84 253.23,261.84 Z" id="Path" fill="#FA8C0B"></path>
            <path d="M259,264.81 L246.5,264.81 C246.028945,264.804522 245.649968,264.421087 245.65,263.95 C245.65,263.480558 246.030558,263.1 246.5,263.1 L259,263.1 C259.471087,263.099968 259.854522,263.478945 259.86,263.95 C259.854597,264.422709 259.472709,264.804597 259,264.81 Z" id="Path" fill="#FA8C0B"></path>
            <path d="M275,264.81 L262.47,264.81 C261.997291,264.804597 261.615403,264.422709 261.61,263.95 C261.615478,263.478945 261.998913,263.099968 262.47,263.1 L275,263.1 C275.471087,263.099968 275.854522,263.478945 275.86,263.95 C275.854597,264.422709 275.472709,264.804597 275,264.81 Z" id="Path" fill="#AF214E"></path>
            <path d="M270.59,258.55 L250.59,258.55 C250.120558,258.55 249.74,258.169442 249.74,257.7 C249.74,257.474566 249.829553,257.258365 249.988959,257.098959 C250.148365,256.939553 250.364566,256.85 250.59,256.85 L270.59,256.85 C270.815434,256.85 271.031635,256.939553 271.191041,257.098959 C271.350447,257.258365 271.44,257.474566 271.44,257.7 C271.44,257.925434 271.350447,258.141635 271.191041,258.301041 C271.031635,258.460447 270.815434,258.55 270.59,258.55 Z" id="Path" fill="#AF214E"></path>
            <path d="M247.24,258.55 L240.69,258.55 C240.220558,258.55 239.84,258.169442 239.84,257.7 C239.84,257.474566 239.929553,257.258365 240.088959,257.098959 C240.248365,256.939553 240.464566,256.85 240.69,256.85 L247.24,256.85 C247.711087,256.849968 248.094522,257.228945 248.1,257.7 C248.094522,258.171055 247.711087,258.550032 247.24,258.55 Z" id="Path" fill="#FFFFFF"></path>
            <path d="M279,244.9 L272.45,244.9 C271.978945,244.894522 271.599968,244.511087 271.6,244.04 C271.6,243.570558 271.980558,243.19 272.45,243.19 L279,243.19 C279.471087,243.189968 279.854522,243.568945 279.86,244.04 C279.854597,244.512709 279.472709,244.894597 279,244.9 Z" id="Path" fill="#FFFFFF"></path>
            <path d="M268.88,244.9 L256.05,244.9 C255.575035,244.9 255.19,244.514965 255.19,244.04 C255.189984,243.812823 255.280909,243.595092 255.442484,243.435396 C255.60406,243.275699 255.822838,243.187327 256.05,243.19 L268.88,243.19 C269.105434,243.19 269.321635,243.279553 269.481041,243.438959 C269.640447,243.598365 269.73,243.814566 269.73,244.04 C269.730032,244.511087 269.351055,244.894522 268.88,244.9 Z" id="Path" fill="#FA8C0B"></path>
            <path d="M267.69,241.93 L262.28,241.93 C261.807291,241.924597 261.425403,241.542709 261.42,241.07 C261.425478,240.598945 261.808913,240.219968 262.28,240.22 L267.69,240.22 C268.161087,240.219968 268.544522,240.598945 268.55,241.07 C268.544597,241.542709 268.162709,241.924597 267.69,241.93 Z" id="Path" fill="#FA8C0B"></path>
            <path d="M74.91,336.7 C72.2,338.11 62.77,348.7 61.74,340.23 C60.71,331.76 67.07,333.88 67.07,333.88 C76.41,336.4 83.23,326.22 83.23,326.22 C83.1206707,323.901586 82.5530758,321.627808 81.56,319.53 C81.49,319.35 81.41,319.17 81.33,318.99 C79.7718739,315.561105 77.9392446,312.26371 75.85,309.13 C72,316.32 55.76,329 54.17,325.2 C52.58,321.4 56.88,320.06 56.88,320.06 C72.02,316.88 72.58,305.77 72.58,305.77 C72.1972651,304.898945 71.662218,304.103147 71,303.42 L70.62,303 C66.62,298.85 58.46,294.47 58.46,294.47 C58.1777851,299.345705 55.8811712,303.884597 52.12,307 C42.12,307.56 47.45,301.3 47.45,301.3 C55.2,299.3 54.55,291.68 54.55,291.68 C53.7711475,291.59232 53.0223458,291.329043 52.36,290.91 L51.9,290.65 C48.9782246,288.753069 46.2097348,286.629891 43.62,284.3 C43.25,287.61 39.45,288.75 39.33,288.79 C40.33,288.21 40.82,283.18 40.82,283.18 C40.4659028,283.012844 40.1306687,282.808351 39.82,282.57 L39.38,282.25 C36.6427901,279.981812 34.0541257,277.540117 31.63,274.94 L30.77,274.03 C30.8121238,274.186451 30.8323167,274.347994 30.83,274.51 C30.8225038,274.848337 30.7721011,275.184354 30.68,275.51 C30.07,277.89 27.78,281.84 25.97,284.7 L25.66,285.2 C24.53,286.97 23.66,288.2 23.66,288.2 C26.56,295.48 38.89,293.2 33.66,299.47 C28.43,305.74 20.95,292.31 20.95,292.31 C21.1,293.14 20.25,294.81 18.95,296.72 L18.63,297.21 C17.71,298.57 16.63,300.02 15.63,301.36 L15.29,301.81 C13.29,304.41 11.42,306.5 11.42,306.5 C11.42,306.5 12.35,314.26 23.42,316.87 C34.49,319.48 32.86,321.64 32.86,321.64 C22,326.32 10.55,309.5 10.55,309.5 C8.25449813,312.156717 6.40086481,315.165073 5.06,318.41 C4.98,318.59 4.9,318.76 4.83,318.94 C3.08792283,323.08524 1.7484268,327.388371 0.83,331.79 C11.21,346 17,338.74 22,338.74 C27,338.74 29.57,340.23 29.57,341.63 C29.57,343.03 28.36,347.71 18.57,347.71 C8.78,347.71 0,337.71 0,337.71 C0.714562751,342.464877 1.77742233,347.160845 3.18,351.76 C3.24,351.96 3.3,352.15 3.37,352.35 C15.19,388.91 41.45,364 44.84,360.6 L45.21,360.22 C45.2433791,360.496851 45.2968536,360.770908 45.37,361.04 C45.4932745,361.480943 45.6573151,361.909457 45.86,362.32 C46.6290785,363.902168 47.9173752,365.172817 49.51,365.92 C59.24,370.69 82.51,364.24 81.45,352.73 C81.2735166,350.705533 81.3036722,348.668356 81.54,346.65 C81.54,346.45 81.54,346.26 81.61,346.06 C82.3031182,341.005881 84.0289117,336.14847 86.68,331.79 C86.68,331.79 77.62,335.28 74.91,336.7 Z M57.35,340.31 C56.9,341.18 55.27,341.23 53.72,340.41 C52.17,339.59 51.29,338.24 51.72,337.41 C52.15,336.58 53.8,336.49 55.35,337.3 C56.9,338.11 57.81,339.43 57.35,340.31 Z M38.85,338.6 C36.6,339.72 34.21,339.51 33.53,338.13 C32.85,336.75 34.12,334.73 36.38,333.61 C38.64,332.49 41.02,332.7 41.7,334.08 C42.38,335.46 41.11,337.48 38.85,338.6 Z M36.71,321.67 C36.64,320.77 38.11,319.9 40.02,319.73 C41.93,319.56 43.54,320.16 43.62,321.06 C43.7,321.96 42.22,322.83 40.31,323 C38.4,323.17 36.8,322.57 36.71,321.67 Z M57.85,303.39 C58.57,301.61 59.85,300.46 60.68,300.8 C61.51,301.14 61.62,302.86 60.9,304.63 C60.18,306.4 58.9,307.56 58.06,307.22 C57.22,306.88 57.12,305.16 57.85,303.39 Z M31.18,360.2 C27.61,361.66 24.27,361.75 23.71,360.39 C23.15,359.03 25.6,356.74 29.17,355.28 C32.74,353.82 36.08,353.73 36.64,355.09 C37.2,356.45 34.75,358.74 31.18,360.2 Z M60.83,353.43 C60.49,354.93 58.58,355.77 56.58,355.31 C54.58,354.85 53.23,353.25 53.58,351.76 C53.93,350.27 55.83,349.42 57.84,349.88 C59.85,350.34 61.18,351.93 60.83,353.43 Z" id="Shape" fill="#589642" fill-rule="nonzero"></path>
            <g id="Group" opacity="0.3" transform="translate(3.000000, 343.000000)" fill="#FFFFFF">
                <path d="M78.61,3.06 C78.61,3.26 78.61,3.45 78.54,3.65 C68,6.29 60,5.94 54.68,5 C50.8866958,4.39735463 47.2402222,3.08801618 43.93,1.14 L43.44,0.81 L42.81,1.36 C38.863196,4.66728041 34.2319893,7.05802134 29.25,8.36 C24.1908473,9.7078641 18.9755848,10.3803673 13.74,10.36 L13.22,10.36 C8.91758602,10.350984 4.6220107,10.016698 0.37,9.36 C0.3,9.16 0.24,8.97 0.18,8.77 C4.66934261,9.46542697 9.20721167,9.79983147 13.75,9.77 C22.45,9.71 34.51,8.05 42.85,0.53 L43.23,0.19 L43.4,0.03 L43.59,0.17 C43.7101758,0.265791758 43.8371795,0.352689035 43.97,0.43 C47.2881684,2.46441021 50.9753277,3.82373164 54.82,4.43 C60.08,5.39 68.06,5.73 78.61,3.06 Z" id="Path"></path>
            </g>
            <g id="Group" opacity="0.3" transform="translate(4.000000, 318.000000)" fill="#FFFFFF">
                <path d="M77.56,1.53 C74.7941472,3.74522282 71.8318566,5.70334709 68.71,7.38 C64.4543239,9.70358846 59.8065803,11.222326 55,11.86 C51.071017,12.4356482 47.0615532,12.0723976 43.3,10.8 C43.03,10.7 42.83,10.61 42.72,10.56 L42.19,10.74 C38.0334457,12.1114656 33.6869244,12.8201375 29.31,12.84 C27.435876,12.8388987 25.5642997,12.7018726 23.71,12.43 C18.6046774,11.6376899 13.6971292,9.87966089 9.25,7.25 C6.21655926,5.46761306 3.39228878,3.35108733 0.83,0.94 C0.9,0.76 0.98,0.59 1.06,0.41 C3.64182843,2.84539641 6.48978479,4.9822023 9.55,6.78 C19.4009027,12.6487322 31.3353276,13.8849674 42.18,10.16 L42.65,10 L42.76,10 L42.86,10 L43.29,10.18 C47.047043,11.4865918 51.0624403,11.8740725 55,11.31 C60.4,10.64 68.21,8.22 77.31,0.99 C77.41,1.17 77.49,1.35 77.56,1.53 Z" id="Path"></path>
            </g>
            <g id="Group" opacity="0.3" transform="translate(15.000000, 301.000000)" fill="#FFFFFF">
                <path d="M56,2.42 C54.86128,3.70739073 53.6242214,4.90432854 52.3,6 C49.177051,8.6057339 45.5420575,10.5271363 41.63,11.64 C39.0514126,12.3782235 36.3821789,12.7518489 33.7,12.75 C32.5964289,12.7577391 31.4936881,12.6875647 30.4,12.54 L29.72,12.43 L29.23,12.43 C17.4,12.17 9.33,8.03 4.63,4.58 C3.07850352,3.43789296 1.6205496,2.17388704 0.27,0.8 L0.61,0.35 C1.96114454,1.73314377 3.42263734,3.00400707 4.98,4.15 C9.6,7.53 17.5,11.58 29.1,11.87 L29.75,11.87 L30.21,11.94 C33.9791806,12.4322232 37.809434,12.1394216 41.46,11.08 C46.9633545,9.49025524 51.8862389,6.33571816 55.63,2 L56,2.42 Z" id="Path"></path>
            </g>
            <g id="Group" opacity="0.3" transform="translate(18.000000, 290.000000)" fill="#FFFFFF">
                <path d="M34.36,0.89 C33.1697967,3.27991192 31.3381746,5.29158001 29.07,6.7 C27.2385751,7.82235769 25.1965667,8.55748073 23.07,8.86 L22.56,8.91 C22.4,9.09 22.25,9.26 22.09,9.42 C19.33,12.33 16.31,13.81 13.09,13.81 C12.86,13.81 12.62,13.81 12.39,13.81 C7.62,13.5 3.39,10.14 0.63,7.25 L0.95,6.76 C3.68,9.6 7.83,12.96 12.43,13.26 C15.82,13.48 19,12 21.88,8.85 C22,8.74 22.1,8.61 22.21,8.49 L22.29,8.4 L22.41,8.4 L22.88,8.4 C24.9713087,8.11178848 26.9802076,7.39335176 28.78,6.29 C30.9735169,4.94976596 32.741942,3.0149008 33.88,0.71 L34.36,0.89 Z" id="Path"></path>
            </g>
            <g id="Group" opacity="0.3" transform="translate(25.000000, 282.000000)" fill="#FFFFFF">
                <path d="M14.78,0.55 C13.6591049,1.62004217 12.3505781,2.47431353 10.92,3.07 L10.43,3.26 C10.2671413,3.37167229 10.0967323,3.47191289 9.92,3.56 C8.84683642,4.09435833 7.65831728,4.35542033 6.46,4.32 C4.46579677,4.2547887 2.49459293,3.87337426 0.62,3.19 L0.93,2.69 C4.09,3.75 7.45,4.28 9.71,3.04 L10.15,2.78 L10.64,2.6 C11.7917789,2.12775418 12.8616528,1.47637982 13.81,0.67 L14.27,0.27 L14.78,0.55 Z" id="Path"></path>
            </g>
            <path d="M47,343.46 C47,343.68 47,343.89 47,344.11 C46.83,347.62 46.61,351.11 46.4,354.5 C46.23,357.17 46.06,359.8 45.93,362.32 C45.45,371.14 45.29,378.62 46.53,381.48 L45.53,381.92 C44.12,378.65 44.36,370.53 44.93,360.6 C45.05,358.6 45.18,356.54 45.31,354.43 C45.51,351.16 45.73,347.75 45.9,344.33 L45.9,343.56 C46.16,338.44 46.32,333.33 46.24,328.74 C46.24,328.54 46.24,328.35 46.24,328.16 C46.24,326.95 46.16,325.77 46.1,324.64 C45.8142773,320.865517 45.2087717,317.122087 44.29,313.45 C44.29,313.27 44.21,313.08 44.16,312.89 C43.09,308.48 41.69,303.89 40.16,299.42 L39.95,298.82 C38.32,294.06 36.56,289.49 34.95,285.56 L34.74,285.04 C33.08,280.96 31.61,277.61 30.67,275.5 C30.7621011,275.174354 30.8125038,274.838337 30.82,274.5 C30.8223167,274.337994 30.8021238,274.176451 30.76,274.02 L31.62,274.93 C32.56,277.03 34.05,280.42 35.74,284.57 L35.95,285.08 C37.54,289 39.29,293.56 40.95,298.33 C41.01,298.51 41.07,298.69 41.14,298.87 C42.73,303.53 44.21,308.38 45.31,313 C45.36,313.2 45.4,313.39 45.45,313.58 C46.3322322,317.192828 46.9175164,320.871757 47.2,324.58 C47.26,325.74 47.31,326.95 47.34,328.2 L47.34,328.8 C47.38,333.36 47.22,338.4 47,343.46 Z" id="Path" fill="#467437"></path>
            <path d="M23.64,324 C25.4799925,328.778182 26.3140554,333.88469 26.09,339 C26.09,339.19 26.09,339.39 26.09,339.59 C25.963032,341.61897 25.6279393,343.629526 25.09,345.59 C22,356.68 43.71,367.17 54.14,364.21 C55.8392104,363.759195 57.3323262,362.739075 58.37,361.32 C58.6378701,360.95173 58.8721434,360.560159 59.07,360.15 C59.1969387,359.900013 59.3007057,359.638922 59.38,359.37 L59.67,359.81 C62.4,363.81 83.8,392.95 101.96,359.09 L102.25,358.54 C104.445193,354.26212 106.326809,349.830464 107.88,345.28 C107.88,345.28 97.46,353.55 87.81,351.8 C78.16,350.05 77.81,345.24 78.04,343.86 C78.27,342.48 81.04,341.47 86.04,342.37 C91.04,343.27 95.39,351.47 108.14,339.3 C108.009819,334.824046 107.45398,330.370638 106.48,326 C106.48,325.81 106.39,325.62 106.34,325.43 C105.59819,321.996048 104.308352,318.703922 102.52,315.68 C102.52,315.68 88.31,330.2 78.52,323.68 C78.52,323.68 77.34,321.28 88.66,320.68 C99.98,320.08 102.27,312.61 102.27,312.61 C102.27,312.61 100.85,310.23 99.27,307.3 C99.18,307.14 99.09,306.97 99.01,306.8 C98.22,305.3 97.42,303.68 96.76,302.18 C96.68,301.99 96.6,301.81 96.53,301.63 C95.64,299.53 95.1,297.74 95.4,296.94 C95.4,296.94 85.64,308.88 81.62,301.73 C77.6,294.58 89.31,299.07 93.46,292.42 C93.46,292.42 92.84,291.04 92.05,289.1 C91.97,288.92 91.9,288.74 91.82,288.55 C90.56,285.41 89,281.11 88.82,278.67 C88.7806477,278.337828 88.7806477,278.002172 88.82,277.67 C88.8440681,277.509391 88.8947641,277.353924 88.97,277.21 L87.97,277.96 C85.1226662,280.080529 82.1433163,282.017775 79.05,283.76 L78.56,284 C78.1962002,284.180567 77.8139912,284.321381 77.42,284.42 C77.42,284.42 76.98,289.42 77.89,290.2 C77.78,290.15 74.24,288.35 74.46,285.02 C71.4961296,286.850169 68.393282,288.445059 65.18,289.79 L64.68,289.97 C63.9526535,290.258387 63.1711569,290.384655 62.39,290.34 C62.39,290.34 60.39,297.66 67.66,301.07 C67.66,301.07 71.79,308.18 62.05,305.84 C58.9108786,302.104442 57.4623846,297.233881 58.05,292.39 C58.05,292.39 49.25,295.26 44.57,298.62 L44.12,298.97 C43.3381647,299.510585 42.6605852,300.188165 42.12,300.97 C42.12,300.97 40.69,311.97 55.01,317.83 C55.01,317.83 59.01,319.88 56.76,323.37 C54.51,326.86 40.76,311.46 38.3,303.7 C35.6858133,306.409452 33.2947079,309.325597 31.15,312.42 C31.04,312.58 30.93,312.74 30.83,312.91 C29.4854479,314.779948 28.5236907,316.897173 28,319.14 C28,319.14 32.9,330.37 42.54,329.56 C42.54,329.56 49.17,328.56 46.65,336.76 C44.13,344.96 36.73,332.76 34.32,330.93 C31.91,329.1 23.64,324 23.64,324 Z M53.47,335 C55.14,334.48 56.73,334.82 57.02,335.76 C57.31,336.7 56.2,337.88 54.54,338.4 C52.88,338.92 51.28,338.59 50.98,337.65 C50.68,336.71 51.8,335.49 53.47,335 Z M67.47,334.31 C68.39,333.08 70.77,333.31 72.79,334.8 C74.81,336.29 75.71,338.52 74.79,339.8 C73.87,341.08 71.49,340.8 69.47,339.31 C67.45,337.82 66.57,335.5 67.49,334.27 L67.47,334.31 Z M70.82,323.66 C68.97,323.15 67.67,322.03 67.91,321.16 C68.15,320.29 69.84,319.99 71.68,320.49 C73.52,320.99 74.83,322.12 74.59,322.99 C74.35,323.86 72.68,324.13 70.84,323.62 L70.82,323.66 Z M56.16,304.96 C55.27,305.15 54.23,303.79 53.84,301.96 C53.45,300.13 53.84,298.41 54.73,298.22 C55.62,298.03 56.66,299.4 57.06,301.27 C57.46,303.14 57.07,304.73 56.18,304.92 L56.16,304.96 Z M68.71,355.89 C69.5,354.66 72.78,355.33 76.03,357.41 C79.28,359.49 81.28,362.17 80.49,363.41 C79.7,364.65 76.42,363.97 73.17,361.89 C69.92,359.81 67.94,357.09 68.73,355.85 L68.71,355.89 Z M48.81,347 C50.81,346.9 52.59,348.07 52.66,349.6 C52.73,351.13 51.13,352.46 49.07,352.6 C47.01,352.74 45.29,351.53 45.22,349.99 C45.15,348.45 46.75,347 48.81,347 Z" id="Shape" fill="#6FBD44" fill-rule="nonzero"></path>
            <g id="Group" opacity="0.3" transform="translate(26.000000, 339.000000)" fill="#FFFFFF">
                <path d="M0.09,0 C0.09,0.19 0.09,0.39 0.09,0.59 C10,5 17.92,6.11 23.3,6.1 C27.138236,6.17608779 30.9569566,5.53511248 34.56,4.21 L35.1,3.97 C35.27,4.19 35.44,4.42 35.62,4.63 C38.9038521,8.61685887 43.0381868,11.8184057 47.72,14 C52.4531166,16.2372581 57.4642122,17.8313919 62.62,18.74 L63.13,18.84 C67.3678588,19.5955802 71.6567127,20.0301484 75.96,20.14 L76.25,19.59 C71.7066053,19.4919477 67.1785513,19.0271031 62.71,18.2 C54.15,16.58 42.59,12.8 35.71,3.92 L35.4,3.51 L35.26,3.32 L35.05,3.43 L34.63,3.62 C31.0009102,5.02601584 27.1309967,5.70554411 23.24,5.62 C17.9,5.55 10,4.46 0.09,0 Z" id="Path"></path>
            </g>
            <g id="Group" opacity="0.3" transform="translate(30.000000, 312.000000)" fill="#FFFFFF">
                <path d="M0.87,0.85 C3.19476298,3.52152603 5.75875397,5.97505789 8.53,8.18 C12.2930241,11.2094456 16.5809712,13.5212084 21.18,15 C24.9556984,16.2712738 28.9786314,16.6310761 32.92,16.05 C33.21,16 33.42,15.95 33.54,15.92 L34.03,16.19 C37.8736523,18.2846025 42.0252421,19.756223 46.33,20.55 C48.1719221,20.89082 50.0375312,21.0880797 51.91,21.14 C57.0738089,21.2764235 62.2160945,20.4244672 67.06,18.63 C70.3632751,17.4144918 73.5223814,15.8382922 76.48,13.93 C76.48,13.74 76.39,13.55 76.34,13.36 C73.3633179,15.2916092 70.1802652,16.8848126 66.85,18.11 C56.1107952,22.1289765 44.1471071,21.2182586 34.14,15.62 L33.71,15.38 L33.61,15.33 L33.5,15.33 L33.04,15.43 C29.1031697,16.0450156 25.0760969,15.701994 21.3,14.43 C16.1,12.81 8.85,9.03 1.19,0.3 C1.08,0.52 1,0.68 0.87,0.85 Z" id="Path"></path>
            </g>
            <g id="Group" opacity="0.3" transform="translate(44.000000, 298.000000)" fill="#FFFFFF">
                <path d="M0.12,0.88 C1.0093319,2.3621525 2.01234306,3.77305487 3.12,5.1 C7.47747689,10.3185448 13.5299037,13.8402785 20.22,15.05 C21.3029475,15.256028 22.3989352,15.3863436 23.5,15.44 L24.19,15.44 L24.67,15.52 C36.36,17.36 45.03,14.73 50.28,12.17 C52.024924,11.3296234 53.6972993,10.3462667 55.28,9.23 C55.19,9.07 55.1,8.9 55.02,8.73 C53.4382199,9.8651148 51.765939,10.8684833 50.02,11.73 C44.87,14.23 36.37,16.81 24.91,15.03 L24.27,14.93 L23.75,14.93 C19.9500799,14.7168366 16.2354489,13.7192318 12.84,12 C7.72149929,9.43276387 3.45883398,5.43412673 0.57,0.49 L0.12,0.88 Z" id="Path"></path>
            </g>
            <g id="Group" opacity="0.3" transform="translate(64.000000, 289.000000)" fill="#FFFFFF">
                <path d="M0.7,0.88 C1.44544589,3.4409157 2.88939335,5.74361369 4.87,7.53 C6.47242005,8.95685317 8.34657146,10.0452896 10.38,10.73 L10.87,10.87 C10.99,11.07 11.11,11.26 11.24,11.45 C13.43,14.81 16.14,16.8 19.31,17.38 L20.01,17.48 C24.75,18.02 29.5,15.48 32.75,13.12 C32.67,12.93 32.59,12.75 32.52,12.57 C29.33,14.88 24.64,17.45 20.07,16.93 C16.69,16.54 13.83,14.51 11.55,10.93 C11.45532,10.7951221 11.3685088,10.6548886 11.29,10.51 L11.23,10.41 L11.11,10.41 L10.66,10.28 C8.65173541,9.62629076 6.80221581,8.56017725 5.23,7.15 C3.32334376,5.43359406 1.93733575,3.21598125 1.23,0.75 L0.7,0.88 Z" id="Path"></path>
            </g>
            <g id="Group" opacity="0.3" transform="translate(78.000000, 283.000000)" fill="#FFFFFF">
                <path d="M0.58,0.91 C1.48898286,2.16301509 2.62125126,3.23765306 3.92,4.08 L4.37,4.35 C4.51056067,4.49050797 4.66094034,4.62083702 4.82,4.74 C5.78085944,5.45844003 6.90398146,5.92898351 8.09,6.11 C10.0809903,6.4059807 12.1064569,6.38235026 14.09,6.04 C14.01,5.86 13.94,5.68 13.86,5.49 C10.56,5.97 7.17,5.89 5.16,4.27 C5.03,4.16 4.9,4.05 4.78,3.93 C4.78,3.93 4.61,3.84 4.34,3.66 C3.29049,2.99430146 2.35233661,2.16751161 1.56,1.21 C1.43,1.05 1.31,0.89 1.19,0.72 L0.58,0.91 Z" id="Path"></path>
            </g>
            <path d="M60.64,342.57 C60.64,342.78 60.58,343 60.56,343.21 C60.1,346.7 59.69,350.21 59.3,353.54 C58.99,356.2 58.68,358.81 58.37,361.32 C57.27,370.09 56.09,377.47 54.37,380.07 L55.3,380.68 C57.3,377.68 58.48,369.68 59.68,359.81 C59.92,357.81 60.1633333,355.763333 60.41,353.67 C60.79,350.42 61.19,347.02 61.63,343.67 L61.73,342.91 C62.39,337.82 63.14,332.77 64.04,328.26 C64.04,328.07 64.12,327.88 64.15,327.69 C64.4,326.5 64.65,325.35 64.92,324.25 C65.8756136,320.590782 67.1367078,317.018239 68.69,313.57 L68.92,313.04 C70.76,308.89 72.92,304.61 75.25,300.49 L75.56,299.94 C78.02,295.55 80.56,291.36 82.83,287.78 L83.12,287.31 C85.49,283.59 87.53,280.55 88.83,278.65 C88.7906477,278.317828 88.7906477,277.982172 88.83,277.65 C88.8540681,277.489391 88.9047641,277.333924 88.98,277.19 L87.98,277.94 C86.68,279.83 84.61,282.94 82.21,286.68 L81.91,287.15 C79.65,290.73 77.11,294.9 74.65,299.3 C74.55,299.46 74.46,299.63 74.37,299.8 C71.97,304.1 69.65,308.61 67.74,312.96 L67.5,313.51 C65.9901933,316.89976 64.7626944,320.408333 63.83,324 C63.56,325.13 63.29,326.32 63.04,327.54 L62.92,328.13 C62,332.55 61.29,337.54 60.64,342.57 Z" id="Path" fill="#5C9A43"></path>
            <path d="M67.44,415.4 L33.61,415.4 C31.8403029,415.400444 30.3537996,414.069054 30.16,412.31 L26.87,382.07 C26.761934,381.091984 27.0753879,380.114215 27.7319394,379.381321 C28.3884908,378.648426 29.3260314,378.229735 30.31,378.23 L70.73,378.23 C71.7146669,378.230062 72.6529429,378.648456 73.3110178,379.380922 C73.9690927,380.113387 74.2849933,381.090947 74.18,382.07 L70.88,412.31 C70.6909762,414.067492 69.207628,415.399918 67.44,415.4 Z" id="Path" fill="#D69128"></path>
            <rect id="Rectangle" fill="#FBAE17" x="22.68" y="378.23" width="56.18" height="9.99" rx="2.48"></rect>
            <rect id="Rectangle" fill="#D5D6D5" x="395.54" y="297.42" width="33.72" height="2.22" rx="1.11"></rect>
            <path d="M395.85,295.7 L389,259 C388.874264,258.315051 388.276392,257.818227 387.58,257.82 L363.7,257.82 C363.27107,257.821922 362.865001,258.013654 362.590973,258.343644 C362.316946,258.673635 362.203083,259.108018 362.28,259.53 L369.09,296.25 C369.215167,296.936771 369.811924,297.43687 370.51,297.44 L394.43,297.44 C394.865293,297.439789 395.277462,297.244031 395.552684,296.906788 C395.827905,296.569545 395.937059,296.126498 395.85,295.7 Z" id="Path" fill="#D5D6D5"></path>
            <path d="M395.22,295.7 L388.32,259 C388.190599,258.317203 387.594947,257.822225 386.9,257.82 L363.07,257.82 C362.63983,257.818345 362.231447,258.009093 361.956629,258.340037 C361.68181,258.67098 361.569339,259.107457 361.65,259.53 L368.46,296.25 C368.581449,296.938926 369.180452,297.440907 369.88,297.44 L393.79,297.44 C394.225769,297.439135 394.638372,297.243662 394.915055,296.906999 C395.191737,296.570336 395.303573,296.127681 395.22,295.7 Z" id="Path" fill="#E8E7E7"></path>
            <rect id="Rectangle" fill="#E8E7E7" x="368.68" y="297.42" width="28.09" height="2.22" rx="1.01"></rect>
            <path d="M401.26,299 L398.47,299 C398.188335,299 397.96,298.771665 397.96,298.49 C397.957314,298.353015 398.009857,298.220711 398.105793,298.122894 C398.20173,298.025076 398.332989,297.969974 398.47,297.97 L401.26,297.97 C401.547188,297.97 401.78,298.202812 401.78,298.49 C401.774551,298.773275 401.543328,299.000052 401.26,299 Z" id="Path" fill="#B6B6B7"></path>
            <path d="M406,299 L403.22,299 C403.083015,299.002686 402.950711,298.950143 402.852894,298.854207 C402.755076,298.75827 402.699974,298.627011 402.7,298.49 C402.7,298.202812 402.932812,297.97 403.22,297.97 L406,297.97 C406.287188,297.97 406.52,298.202812 406.52,298.49 C406.520026,298.627011 406.464924,298.75827 406.367106,298.854207 C406.269289,298.950143 406.136985,299.002686 406,299 Z" id="Path" fill="#B6B6B7"></path>
            <path d="M386.07,368.92 C386.07,368.92 379.64,377 372,376.07 C372,376.07 371.22,380.58 376.33,381.48 C381.44,382.38 388.65,381.48 388.65,381.48 L395.44,371.86 L386.07,368.92 Z" id="Path" fill="#C69C6D"></path>
            <path d="M372,376.07 C372,376.07 359.2,375.53 356.62,374.15 C356.62,374.15 354.09,373.91 357.4,377.63 C360.71,381.35 372,388 383,386.23 L382,391.34 L383.72,392.18 L388.86,381.18 C382.733509,382.531262 376.345446,380.595141 372,376.07 Z" id="Path" fill="#263238"></path>
            <path d="M441.48,223 C441.48,223 437.2,213.84 448.21,211.68 C459.22,209.52 464.56,217.44 466.21,223.61 C466.21,223.61 479.47,220.12 480.81,236.47 C480.81,236.47 506.81,246.24 483.18,269.08 L464.87,263.59 L454.69,231.59 L444.81,224.7 L441.48,223 Z" id="Path" fill="#FD0019"></path>
            <path d="M441.79,217.28 C441.79,217.28 439.46,231.59 447.39,242 C447.39,242 453.14,240.14 454.69,242 C455.933963,243.847692 456.957582,245.834519 457.74,247.92 C457.74,247.92 455.95,248.68 455.97,248.92 C455.982359,249.422456 456.049421,249.92207 456.17,250.41 L469.6,247.67 C469.6,247.67 463.23,235.96 462.46,228.19 C461.69,220.42 459.35,213.74 452.36,214.75 C448.749068,215.172673 445.200975,216.021933 441.79,217.28 Z" id="Path" fill="#C69C6D"></path>
            <path d="M451.46,220.65 C451.46,220.65 462.63,229.99 466.46,239.41 L471.1,231.47 L461.3,221.07 L452.2,216.37 L451.46,220.65 Z" id="Path" fill="#FD0019"></path>
            <path d="M441.79,217.28 C441.79,217.28 442.96,230.28 464.05,233.44 L463.22,219.8 L457.6,214.43 L451.46,213.19 L445.07,214.26 L441.79,217.28 Z" id="Path" fill="#FD0019"></path>
            <path d="M492,362.84 L464,362.84 L464,359 L492,359 C492.78,359 507.71,358.34 507.71,340.72 C507.71,331.49 504.85,327.89 501.81,324.09 C498.46,319.89 494.99,315.54 494.99,304.7 L498.83,304.7 C498.83,314.2 501.73,317.84 504.83,321.7 C508.14,325.85 511.57,330.14 511.57,340.7 C511.57,351.89 506.26,357.33 501.81,359.92 C498.831964,361.628464 495.497543,362.621258 492.07,362.82 L492,362.84 Z" id="Path" fill="#343433"></path>
            <path d="M437.82,380.25 C437.82,380.25 447.1,398.93 443.12,402.34 C438.95,405.92 431.6,403.34 431.6,403.34 C431.6,403.34 433.49,396.13 428.94,382.25 L437.82,380.25 Z" id="Path" fill="#C69C6D"></path>
            <path d="M443.12,314.16 L410.19,338.79 C410.19,338.79 427.41,381 427.72,389 C427.72,389 436.33,388.4 440.86,384.92 L428.77,346.8 L474.86,339.64 L473.2,320.64 L463.2,312.93 L443.12,314.16 Z" id="Path" fill="#CCCCCC"></path>
            <path d="M419.62,293.8 C419.62,293.8 418,296.42 411.55,295.58 C411.55,295.58 405.87,296.3 404.06,298.08 C404.06,298.08 403.52,298.08 404.81,296.39 C406.1,294.7 410.11,288.98 417.48,290.48 L420.67,291.66 L419.62,293.8 Z" id="Path" fill="#C69C6D"></path>
            <path d="M417.78,290.59 C418.88059,291.436149 419.487921,292.774527 419.4,294.16 C419.4,294.16 439.34,298.96 441.34,298.64 C443.34,298.32 454.62,285.54 454.62,285.54 L445.62,278.61 C445.62,278.61 442.48,291.11 439.56,291.68 C436.64,292.25 417.78,290.59 417.78,290.59 Z" id="Path" fill="#701467"></path>
            <path d="M457.74,247.92 C457.74,247.92 457.04,252.06 468.74,246.34 L477.42,260.27 C477.42,260.27 474.64,292.27 475.87,298.66 C477.1,305.05 480.19,317.45 480.19,317.45 C480.19,317.45 448.41,321.26 443.19,315.29 L447.71,290.07 L447,265.82 L450.6,254.82 L457.74,247.92 Z" id="Path" fill="#A46BA1"></path>
            <path d="M457.73,247.92 C457.73,247.92 447.85,257.14 448.99,286.11 C450.13,315.08 442.4,316.53 442.4,316.53 L440.86,315.81 C440.86,315.81 447.13,293.45 445.86,281.49 C444.59,269.53 443.23,253.38 457.73,247.92 Z" id="Path" fill="#60115C"></path>
            <path d="M442.4,301.3 C442.4,301.3 438.86,303.9 430.75,299.3 C430.75,299.3 422.84,297.21 419.48,298.6 C419.48,298.6 418.79,298.29 421.38,296.77 C423.97,295.25 432.38,289.77 441.38,295.71 L444.98,298.98 L442.4,301.3 Z" id="Path" fill="#C69C6D"></path>
            <path d="M480.15,317.45 L409.49,318.63 C408.715103,318.643293 408.017641,319.103072 407.7,319.81 C404.35,327.25 385.8,368.09 382.23,369.47 L394.77,378.23 L413.92,336.11 C413.92,336.11 467.31,344.53 476.98,338.79 C489.3,331.47 480.15,317.45 480.15,317.45 Z" id="Path" fill="#E6E6E6"></path>
            <path d="M431.84,401.88 C431.84,401.88 426.05,413.11 421.28,416 C421.28,416 420.28,417.66 424.28,416.66 C428.28,415.66 444.19,405.45 444.19,405.45 L447,411 L448.36,410.19 L444.05,398.19 C444.05,398.19 443.05,402 431.84,401.88 Z" id="Path" fill="#263238"></path>
            <path d="M468.83,246.16 C468.83,246.16 455.53,251.32 455.53,280.6 C455.53,309.88 453,325.71 453,325.71 C453,325.71 472.38,314.8 483.42,321.15 C483.42,321.15 477.68,306.42 479.36,293.36 C481.04,280.3 485.44,260.19 479.56,253.98 C473.68,247.77 468.83,246.16 468.83,246.16 Z" id="Path" fill="#60115C"></path>
            <path d="M477.07,252.6 C477.07,252.6 493.26,256.46 473.41,308.68 C473.41,308.68 466.41,311.12 441.75,301.76 C441.75,301.76 443.38,298.1 441.34,295.76 L462.92,298.82 C462.92,298.82 471,284.25 467,261.35 C467,261.35 471,252.8 477.07,252.6 Z" id="Path" fill="#701467"></path>
            <path d="M474.21,359.77 C474.21,362 469.53,364.96 463.93,364.96 C458.33,364.96 453.93,361.96 453.93,359.77 C453.93,357.58 458.32,356.88 463.93,356.88 C469.54,356.88 474.21,357.54 474.21,359.77 Z" id="Path" fill="#343433"></path>
            <rect id="Rectangle" fill="#AF214E" x="434.1" y="340.72" width="59.95" height="15.62" rx="7.81"></rect>
            <rect id="Rectangle" fill="#343433" x="440.86" y="356.34" width="47.6" height="3.42" rx="1.53"></rect>
            <path d="M464.17,399 L464.17,398.71 C462.771104,398.704492 461.639989,397.568907 461.64,396.17 L461.64,364 C461.639989,362.601093 462.771104,361.465508 464.17,361.46 C465.572803,361.46 466.71,362.597197 466.71,364 L466.71,396.2 C466.711547,397.648487 465.611786,398.860822 464.17,399 Z" id="Path" fill="#343433"></path>
            <path d="M483.74,410.5 L463.89,399 C462.752558,398.338335 462.36002,396.884159 463.01,395.74 C463.675061,394.606187 465.128443,394.218321 466.27,394.87 L486.12,406.33 C487.257442,406.991665 487.64998,408.445841 487,409.59 C486.348606,410.738373 484.89199,411.144974 483.74,410.5 Z" id="Path" fill="#343433"></path>
            <path d="M444.55,410.5 L464.4,399 C465.537442,398.338335 465.92998,396.884159 465.28,395.74 C464.614939,394.606187 463.161557,394.218321 462.02,394.87 L442.17,406.33 C441.031499,406.991485 440.642475,408.449207 441.3,409.59 C441.609056,410.142958 442.125801,410.549894 442.735805,410.720695 C443.345809,410.891496 443.998737,410.812068 444.55,410.5 Z" id="Path" fill="#343433"></path>
            <circle id="Oval" fill="#343433" transform="translate(488.155488, 410.286416) rotate(-76.720000) translate(-488.155488, -410.286416) " cx="488.155488" cy="410.286416" r="6.81"></circle>
            <circle id="Oval" fill="#616161" cx="488.17" cy="410.31" r="3.85"></circle>
            <circle id="Oval" fill="#343433" cx="441.74" cy="410.31" r="6.81"></circle>
            <circle id="Oval" fill="#616161" cx="441.74" cy="410.31" r="3.85"></circle>
            <path d="M511.5,276.53 C509.65,282.08 505.13,298.66 511.3,313.76 C511.483907,314.20859 511.431446,314.719413 511.1602,315.12126 C510.888953,315.523106 510.434817,315.762798 509.95,315.76 L493.16,315.76 C492.646068,315.764706 492.167516,315.498843 491.9,315.06 C490.41,312.57 486.41,302.84 492.15,275.75 C492.292016,275.073602 492.888854,274.589454 493.58,274.59 L510.11,274.59 C510.584687,274.586367 511.031506,274.813738 511.307984,275.199614 C511.584463,275.58549 511.65608,276.081693 511.5,276.53 Z" id="Path" fill="#701467"></path>
            <path d="M508,276.84 C506.1,282.64 501.91,298.68 507.76,313.41 C507.976659,313.937195 507.916399,314.537683 507.599306,315.011315 C507.282214,315.484947 506.749978,315.769452 506.18,315.77 L489.89,315.77 C489.279879,315.77278 488.715057,315.448389 488.41,314.92 C486.86,312.22 483.13,302.39 488.7,275.92 C488.869635,275.12747 489.569519,274.560897 490.38,274.56 L506.38,274.56 C506.936501,274.557461 507.459429,274.825885 507.781761,275.279538 C508.104094,275.733191 508.185508,276.315323 508,276.84 Z" id="Path" fill="#AF214E"></path>
            <rect id="Rectangle" fill="#9C6B29" x="166.68" y="299.64" width="268.61" height="4.68"></rect>
            <rect id="Rectangle" fill="#7D551C" x="166.68" y="301.98" width="268.61" height="2.34"></rect>
            <rect id="Rectangle" fill="#885B24" x="192.06" y="304.32" width="3.72" height="112.49"></rect>
            <rect id="Rectangle" fill="#885B24" x="403.45" y="304.32" width="3.72" height="112.49"></rect>
            <path d="M594.22,337.77 C594.22,339.83 590.01,361.07 553.64,374.92 C553.64,374.92 558.42,366.71 571.69,357.35 C584.69,348.2 593.17,340.51 594.08,337.94 C594.08756,337.883585 594.08756,337.826415 594.08,337.77 C594.19,337.55 594.23,337.56 594.22,337.77 Z" id="Path" fill="#80C251"></path>
            <path d="M554.8,377.62 C554.45,377.45 531.8,366.62 527.4,361.86 C522.8,356.92 518.63,349.22 515.05,343.75 C513.21,340.94 511.52,338.75 510.05,337.75 C509.967816,337.692604 509.880826,337.642417 509.79,337.6 C510.64,338.08 539.11,353.18 554.8,377.62 Z" id="Path" fill="#80C251"></path>
            <path d="M600,319.8 C600,319.8 593.38,324.88 592.07,327.34 C589.59,332.02 581.25,337.5 571.73,341.76 C565.85,344.4 562.73,346.54 553.21,358.66 C553.21,358.66 553.21,358.66 553.21,358.66 C553.67,357.77 563.64,338.59 577.21,332.53 C591.05,326.32 589.14,322.4 592.29,320.88 C595.44,319.36 600,319.8 600,319.8 Z" id="Path" fill="#80C251"></path>
            <path d="M554.23,363.57 C548.6,355.45 536.56,349.24 533.23,347.14 C529.9,345.04 525.59,339.88 521.96,333.87 C518.33,327.86 505.63,325.47 505.63,325.47 C517.57,322.41 527.5,328.81 529.89,332.63 C532.28,336.45 536.96,341.51 543.74,346.47 C550.52,351.43 554.23,363.57 554.23,363.57 Z" id="Path" fill="#80C251"></path>
            <path d="M598.85,291.72 C598.56,298.21 592.45,312.63 579.75,318.65 C567.25,324.57 554.75,336.79 554.36,337.16 C554.49,337 554.63,336.82 554.77,336.62 C557.52,332.73 561.64,321.5 576.88,313.98 C586.479929,309.216462 594.212753,301.381566 598.85,291.72 Z" id="Path" fill="#80C251"></path>
            <path d="M505.54,301.68 L505.05,301.63 C505.214903,301.622503 505.38001,301.639351 505.54,301.68 Z" id="Path" fill="#80C251"></path>
            <path d="M554.8,341.55 C554.8,341.55 549.46,344.4 530.12,322.55 C517.12,307.91 510.23,303.5 507.12,302.17 C506.623216,301.947039 506.103428,301.779366 505.57,301.67 C508.7,302.02 525.64,304.52 534.2,318.62 C543.64,334.17 551.28,339.43 554.81,341.53 L554.8,341.55 Z" id="Path" fill="#80C251"></path>
            <path d="M590.33,284.3 C589.95,285.16 583.79,299 578.51,305.75 C573.11,312.67 555.96,322.75 555.69,322.94 C555.8,322.73 562.36,310.94 571.63,304.7 C580.9,298.46 590.19,284.51 590.33,284.3 Z" id="Path" fill="#80C251"></path>
            <path d="M556.15,325 C555.63,324.91 538.97,322 526.84,305.46 C514.52,288.65 520.54,287.32 510.51,277 C510.89,277.21 523.05,284.27 531.89,303.54 C531.89,303.51 538.2,315.76 556.15,325 Z" id="Path" fill="#80C251"></path>
            <path d="M573.72,292.54 C569.66,296.65 558.86,307.37 557.04,309.18 L556.78,309.43 C556.78,309.43 556.78,309.35 556.78,309.21 C557.06,307.4 559.31,295.05 569.83,287.21 C581.02,278.89 585.63,265.44 585.78,265.02 C586.09,276.3 578.17,288.05 573.72,292.54 Z" id="Path" fill="#80C251"></path>
            <path d="M557,311.44 C556.32,311.15 541.77,304.92 535,291.58 C528,277.93 525.65,271.44 521.64,268.19 C522.04,268.42 534.83,276 541.78,293.01 C541.78,293.01 544.78,299.3 557.02,311.41 L557,311.44 Z" id="Path" fill="#80C251"></path>
            <path d="M557.66,295.82 C551.24565,289.86973 546.087605,282.695389 542.49,274.72 C536.49,261.37 534.49,256.88 532.09,255.91 C532.589524,256.035148 533.080528,256.192135 533.56,256.38 L533.64,256.38 C536.98,257.69 544.86,262.15 549.08,275.84 C552.94,288.37 555.7,293.21 556.97,294.97 C557.173616,295.273769 557.404577,295.558286 557.66,295.82 Z" id="Path" fill="#80C251"></path>
            <path d="M568.52,276.59 C559.12,289 557.59,291.09 557.52,291.15 C559.347142,284.838993 561.97875,278.78932 565.35,273.15 C570.74,264.15 573.51,255.66 573.03,253.53 C573.03,253.53 573.03,253.53 573.03,253.48 C573.035705,253.426819 573.035705,253.373181 573.03,253.32 C573.28,254 577.76,264.39 568.52,276.59 Z" id="Path" fill="#80C251"></path>
            <path d="M556.7,394.58 C556.54,394.33 556.49,394.21 556.39,394.03 C556.308581,393.877247 556.235148,393.720369 556.17,393.56 L555.97,393.09 C555.91,392.94 555.86,392.78 555.8,392.63 C555.69,392.32 555.57,392.01 555.48,391.71 L555.21,390.78 L555.07,390.32 C555.07,390.17 555,390.01 554.96,389.86 L554.74,388.94 C554.67,388.63 554.59,388.32 554.53,388.01 L554.36,387.08 L554.18,386.16 C554.18,385.85 554.07,385.54 554.03,385.23 L553.76,383.38 L553.63,382.45 L553.54,381.52 L553.35,379.66 L553.25,378.73 L553.19,377.8 L553.07,375.95 C553.07,375.33 552.98,374.71 552.95,374.09 L552.88,372.23 L552.82,370.37 C552.82,369.76 552.77,369.14 552.77,368.52 L552.77,364.81 C552.77,354.91 553.41,345.05 554.3,335.23 C554.72,330.31 555.24,325.42 555.68,320.52 C556.12,315.62 556.56,310.71 556.91,305.8 C556.99,304.57 557.09,303.34 557.16,302.11 L557.36,298.43 C557.45,295.97 557.55,293.51 557.44,291.06 C557.44,290.44 557.38,289.83 557.33,289.22 C557.28,288.61 557.19,288 557.12,287.39 C557.05,286.78 556.91,286.18 556.8,285.58 C556.69,284.98 556.56,284.37 556.46,283.76 C556.055278,281.327526 555.794823,278.873238 555.68,276.41 C555.843903,278.866348 556.154457,281.310705 556.61,283.73 C556.73,284.34 556.85,284.94 556.98,285.54 C557.11,286.14 557.24,286.75 557.34,287.36 C557.44,287.97 557.54,288.58 557.59,289.19 C557.64,289.8 557.72,290.42 557.74,291.04 C557.9,293.51 557.85,295.98 557.81,298.44 L557.69,302.14 C557.69,303.37 557.57,304.6 557.51,305.83 C557.27,310.76 556.93,315.67 556.59,320.59 C556.25,325.51 555.83,330.42 555.51,335.33 C554.83,345.14 554.39,354.98 554.59,364.79 L554.68,368.47 C554.68,369.08 554.73,369.69 554.76,370.3 L554.86,372.14 L555,374 C555,374.61 555.11,375.22 555.16,375.83 L555.32,377.65 L555.4,378.56 L555.51,379.47 L555.73,381.29 L555.84,382.19 L555.99,383.09 L556.28,384.89 C556.28,385.19 556.39,385.48 556.45,385.78 L556.64,386.66 L556.82,387.55 C556.88,387.85 556.97,388.13 557.04,388.42 L557.26,389.29 L557.38,389.72 L557.51,390.15 L557.78,390.99 C557.87,391.27 557.98,391.53 558.08,391.81 C558.18,392.09 558.18,392.08 558.24,392.21 L558.41,392.58 C558.459857,392.704809 558.520067,392.825229 558.59,392.94 L558.73,393.2 C559.166305,393.713625 559.103625,394.483695 558.59,394.92 C558.076375,395.356305 557.306305,395.293625 556.87,394.78 C556.846675,394.741016 556.819901,394.704202 556.79,394.67 L556.7,394.58 Z" id="Path" fill="#945D25"></path>
            <path d="M557.86,267.34 C556.23,280.05 557.01,285.86 557.09,286.4 C557.09,286.4 552.41,279.62 552.79,263.87 C553.12,250.35 550.99,245.54 550.38,244.45 L550.32,244.37 C550.321822,244.350041 550.321822,244.329959 550.32,244.31 L550.26,244.22 C550.55,244.58 559.55,254.21 557.86,267.34 Z" id="Path" fill="#80C251"></path>
            <path d="M594.22,337.77 C594.22,339.83 590.01,361.07 553.64,374.92 C553.64,374.92 589.38,353.63 594.08,337.92 C594.08313,337.863377 594.08313,337.806623 594.08,337.75 L594.22,337.77 Z" id="Path" fill="#000000" opacity="0.1"></path>
            <path d="M554.8,377.62 C554.45,377.45 531.8,366.62 527.4,361.86 C522.8,356.92 518.63,349.22 515.05,343.75 C526.762722,356.728797 540.12662,368.115846 554.8,377.62 Z" id="Path" fill="#000000" opacity="0.1"></path>
            <path d="M600,319.76 C600,319.76 593.37,324.85 592.07,327.31 C589.59,331.99 581.25,337.46 571.73,341.73 C565.84,344.36 562.73,346.5 553.2,358.62 C553.7,357.82 564,341.34 573.91,337.62 C584.08,333.82 590.25,325.9 590.69,325.47 C591.13,325.04 595.32,320.73 600,319.76 Z" id="Path" fill="#000000" opacity="0.1"></path>
            <path d="M554.23,363.57 C548.6,355.45 536.56,349.24 533.23,347.14 C529.9,345.04 525.59,339.88 521.96,333.87 C518.33,327.86 505.63,325.47 505.63,325.47 C505.63,325.47 518.57,325.84 521.25,330.39 C523.93,334.94 532.1,343.39 538.46,346.39 C544.82,349.39 553.11,361.45 554.23,363.57 Z" id="Path" fill="#000000" opacity="0.1"></path>
            <path d="M598.85,291.72 C598.56,298.21 592.45,312.63 579.75,318.65 C567.25,324.57 554.75,336.79 554.36,337.16 L554.77,336.62 C556.97,333.79 567.3,321.02 577.17,317.06 C588.29,312.58 598.39,297.5 598.85,291.72 Z" id="Path" fill="#000000" opacity="0.1"></path>
            <path d="M590.31,284.33 C589.93,285.19 583.77,299.03 578.49,305.78 C573.09,312.7 555.94,322.78 555.67,322.97 C555.87,322.76 564.5,313.84 569.96,309.44 C575.42,305.04 586.45,292.58 590.31,284.33 Z" id="Path" fill="#000000" opacity="0.1"></path>
            <path d="M554.8,341.55 C554.8,341.55 549.46,344.4 530.12,322.55 C517.12,307.91 510.23,303.5 507.12,302.17 C519.66,306.98 524.35,311.35 528.12,316.49 C543.76,338.05 554.43,341.36 554.83,341.49 L554.8,341.55 Z" id="Path" fill="#000000" opacity="0.1"></path>
            <path d="M556.81,309.22 L557.03,309.22 L556.77,309.47 C556.77,309.47 556.78,309.36 556.81,309.22 Z" id="Path" fill="#80C251"></path>
            <path d="M573.72,292.54 C569.66,296.65 558.86,307.37 557.04,309.18 C557.25,308.78 564.04,295.9 571.3,291.18 C578.56,286.46 584.08,274.81 585.81,265.08 C586.09,276.3 578.17,288.05 573.72,292.54 Z" id="Path" fill="#000000" opacity="0.1"></path>
            <path d="M568.52,276.59 C559.12,289 557.59,291.09 557.52,291.15 C557.69,290.81 563.67,278.89 568.69,272.23 C573.71,265.57 574.15,257.01 573.03,253.54 C573.03,253.54 573.03,253.54 573.03,253.49 C573.012725,253.424596 572.989287,253.360978 572.96,253.3 C573.28,254 577.76,264.39 568.52,276.59 Z" id="Path" fill="#000000" opacity="0.1"></path>
            <path d="M557.86,267.34 C556.23,280.05 557.01,285.86 557.09,286.4 C554.57,272.57 555.96,267.7 556.77,261.72 C557.51,256.27 551.47,246.23 550.39,244.49 L550.33,244.41 C550.331822,244.390041 550.331822,244.369959 550.33,244.35 L550.27,244.26 C550.55,244.58 559.55,254.21 557.86,267.34 Z" id="Path" fill="#000000" opacity="0.1"></path>
            <path d="M556.14,325 C555.62,324.91 538.96,322 526.83,305.46 C514.51,288.65 520.53,287.32 510.5,277 C510.83,277.27 520.61,285.15 531.5,306.78 C531.55,306.75 540.72,320.19 556.14,325 Z" id="Path" fill="#000000" opacity="0.1"></path>
            <path d="M557,311.44 C556.32,311.15 541.77,304.92 535,291.58 C528,277.93 525.65,271.44 521.64,268.19 C521.98,268.43 531.81,275.47 538.15,290.83 C544.61,306.46 557.02,311.41 557.02,311.41 L557,311.44 Z" id="Path" fill="#000000" opacity="0.1"></path>
            <path d="M557.76,295.92 C551.34565,289.96973 546.187605,282.795389 542.59,274.82 C536.59,261.47 534.59,256.98 532.19,256.01 C532.701886,256.100778 533.199528,256.258813 533.67,256.48 L533.75,256.48 C536.19,257.57 540.95,260.92 543.88,271.04 C547.26,282.71 554.64,292.16 557.08,295.04 C557.43,295.55 557.72,295.86 557.76,295.92 Z" id="Path" fill="#000000" opacity="0.1"></path>
            <path d="M569.72,412 L540.2,412 C538.356768,412.000576 536.80913,410.612444 536.61,408.78 L533.75,382.58 C533.63921,381.560483 533.967261,380.541961 534.652243,379.77875 C535.337224,379.01554 536.314481,378.579679 537.34,378.58 L572.58,378.58 C573.605519,378.579679 574.582776,379.01554 575.267757,379.77875 C575.952739,380.541961 576.28079,381.560483 576.17,382.58 L573.31,408.78 C573.11087,410.612444 571.563232,412.000576 569.72,412 Z" id="Path" fill="#D69128"></path>
            <rect id="Rectangle" fill="#FBAE17" x="529.93" y="378.54" width="50.51" height="8.98" rx="2.23"></rect>
            <path d="M293,275.41 C293,275.41 293.41,265.14 290.58,263.41 C284.88,259.9 278.88,263.61 285.08,275.41 L293,275.41 Z" id="Path" fill="#AF7125"></path>
            <path d="M291,405.12 L293.24,415.47 C293.289122,415.752989 293.214192,416.043436 293.0343,416.267344 C292.854409,416.491251 292.586926,416.626998 292.3,416.64 L264.3,416.64 C263.876706,416.58706 263.533602,416.271424 263.445606,415.854007 C263.35761,415.43659 263.5441,415.009311 263.91,414.79 C268.44,412.79 279.52,409.39 281.91,405.49 C282.071193,405.227801 282.344148,405.054438 282.65,405.02 L290,404.36 C290.470697,404.346286 290.887184,404.662817 291,405.12 Z" id="Path" fill="#161616"></path>
            <path d="M317.35,393.68 L324.35,401.68 C324.53005,401.904401 324.604727,402.195477 324.554946,402.478842 C324.505166,402.762206 324.335752,403.010402 324.09,403.16 L299.56,416.7 C299.163602,416.860806 298.708818,416.751667 298.42857,416.428477 C298.148322,416.105288 298.104682,415.639633 298.32,415.27 C301.32,411.34 309.38,403 309.58,398.43 C309.58588,398.122846 309.743067,397.838414 310,397.67 L316.12,393.54 C316.51308,393.296779 317.021634,393.354663 317.35,393.68 Z" id="Path" fill="#161616"></path>
            <path d="M366.54,327.71 C366.54,327.71 367.61,354.18 302.2,361.99 L321,396 L306.4,402 L285.69,358.3 L284.42,349.3 L366.54,327.71 Z" id="Path" fill="#0D364C"></path>
            <path d="M327.61,324.22 L281.85,337.44 C276.730712,338.915594 273.430626,343.878415 274.05,349.17 L280.61,405.78 C280.61,405.78 288.74,408.39 293.06,404.54 L288.74,354.18 C288.74,354.18 363.35,363.59 366.74,327.05 L327.61,324.22 Z" id="Path" fill="#1A4966"></path>
            <path d="M321.93,223 C321.93,223 318.06,240 326.05,246.38 C327.947385,246.571317 329.860312,246.224773 331.57,245.38 L333.29,253.45 L346.29,252.45 L343.1,226.21 L336.79,217.3 L327.2,217.3 L321.93,223 Z" id="Path" fill="#AF7125"></path>
            <path d="M321.68,226.89 C321.68,226.89 317.68,222.34 321.68,218.56 C321.68,218.56 320.75,209.73 335.39,212.5 C335.39,212.5 342.62,211.5 345.31,216.5 C345.31,216.5 353.14,228.11 345.31,243.5 C345.31,243.5 331.02,246.27 329.59,235 C329.59,235 329.75,228.88 325.72,227.86 C324.300912,228.380411 322.708113,227.997981 321.68,226.89 Z" id="Path" fill="#CCCCCC"></path>
            <path d="M348.77,366.69 C348.77,368.69 344.52,371.4 339.44,371.4 C334.36,371.4 330.38,368.72 330.38,366.69 C330.38,364.66 334.38,364.08 339.44,364.08 C344.5,364.08 348.77,364.67 348.77,366.69 Z" id="Path" fill="#343433"></path>
            <rect id="Rectangle" fill="#AF214E" x="312.38" y="349.41" width="54.4" height="14.18" rx="7.09"></rect>
            <rect id="Rectangle" fill="#343433" x="318.51" y="363.59" width="43.19" height="3.1" rx="1.39"></rect>
            <path d="M339.66,400.18 C338.392021,400.174523 337.365477,399.147979 337.36,397.88 L337.36,370.54 C337.365477,369.272021 338.392021,368.245477 339.66,368.24 C340.927979,368.245477 341.954523,369.272021 341.96,370.54 L341.96,397.88 C341.96,399.150255 340.930255,400.18 339.66,400.18 Z" id="Path" fill="#343433"></path>
            <path d="M357.41,410.64 L339.41,400.24 C338.90461,399.949535 338.536598,399.468766 338.388158,398.905068 C338.239718,398.341371 338.323214,397.741705 338.62,397.24 C338.910465,396.73461 339.391234,396.366598 339.954932,396.218158 C340.518629,396.069718 341.118295,396.153214 341.62,396.45 L359.62,406.85 C360.12539,407.140465 360.493402,407.621234 360.641842,408.184932 C360.790282,408.748629 360.706786,409.348295 360.41,409.85 C360.119535,410.35539 359.638766,410.723402 359.075068,410.871842 C358.511371,411.020282 357.911705,410.936786 357.41,410.64 Z" id="Path" fill="#343433"></path>
            <path d="M321.86,410.64 L339.86,400.24 C340.367479,399.951484 340.737311,399.47067 340.885967,398.906155 C341.034623,398.341639 340.949563,397.741037 340.65,397.24 C340.361484,396.732521 339.88067,396.362689 339.316155,396.214033 C338.751639,396.065377 338.151037,396.150437 337.65,396.45 L319.65,406.85 C319.142521,407.138516 318.772689,407.61933 318.624033,408.183845 C318.475377,408.748361 318.560437,409.348963 318.86,409.85 C319.148516,410.357479 319.62933,410.727311 320.193845,410.875967 C320.758361,411.024623 321.358963,410.939563 321.86,410.64 Z" id="Path" fill="#343433"></path>
            <circle id="Oval" fill="#343433" transform="translate(361.420326, 410.432000) rotate(-76.720000) translate(-361.420326, -410.432000) " cx="361.420326" cy="410.432" r="6.18"></circle>
            <circle id="Oval" fill="#616161" transform="translate(361.556445, 410.587636) rotate(-76.720000) translate(-361.556445, -410.587636) " cx="361.556445" cy="410.587636" r="3.49"></circle>
            <circle id="Oval" fill="#343433" transform="translate(319.488910, 410.623865) rotate(-76.720000) translate(-319.488910, -410.623865) " cx="319.48891" cy="410.623865" r="6.18"></circle>
            <circle id="Oval" fill="#616161" transform="translate(319.505091, 410.664390) rotate(-80.780000) translate(-319.505091, -410.664390) " cx="319.505091" cy="410.66439" r="3.49"></circle>
            <path d="M330.31,254.21 L330.9,250.75 C330.9,250.75 339.81,246.6 349.22,248.82 L350.69,252.32 C350.69,252.32 378.43,253.97 366.54,327.71 C366.54,327.71 344.89,339.37 324.19,324.62 C324.19,324.62 318.96,271.62 318.01,260.05 L330.31,254.21 Z" id="Path" fill="#FA8C0B"></path>
            <path d="M318,260.05 C318,260.05 295,293.45 299.65,304.05 C299.65,304.05 302.28,309.05 308.51,306.21 C314.74,303.37 333.3,275.33 318,260.05 Z" id="Path" fill="#FA8C0B"></path>
            <rect id="Rectangle" fill="#AF214E" x="335.62" y="267.14" width="42.58" height="42.58" rx="5.29"></rect>
            <rect id="Rectangle" fill="#701467" x="337.36" y="267.14" width="42.58" height="42.58" rx="5.29"></rect>
            <circle id="Oval" fill="#343433" cx="360.33" cy="289.35" r="9.34"></circle>
            <path d="M339.57,366.69 C339.57,366.69 360.33,355.85 360.33,289.35" id="Path" stroke="#343433" stroke-width="17"></path>
            <path d="M301.09,305.73 L285,275 C285,275 287.53,270.4 292,272.22 L312.38,294.17 L301.09,305.73 Z" id="Path" fill="#FA8C0B"></path>
            <path d="M140,254.65 L146.69,270.65 C146.69,270.65 155.81,278.93 163.4,285 C167.4,288.23 171.04,290.83 172.61,291.22 C177.13,292.35 202.85,282.22 205.52,280.9 C208.19,279.58 209.33,280.83 214.06,280.9 C218.79,280.97 226.2,272.09 226.61,269.82 C227.02,267.55 212.83,269.62 212.83,269.62 C212.83,269.62 215.71,264.47 214.06,263.15 C212.41,261.83 205.42,270.44 202.44,273.01 C199.46,275.58 176.52,277.74 173.95,278.01 C173.5,278.01 172.36,277.21 170.77,275.77 C163.14,268.84 145.22,248.2 145.22,248.2 L140,254.65 Z" id="Path" fill="#7D471D"></path>
            <path d="M140,254.65 L146.69,270.65 C146.69,270.65 155.81,278.93 163.4,285 C165.332658,281.550926 167.822994,278.445608 170.77,275.81 C163.14,268.88 145.22,248.24 145.22,248.24 L140,254.65 Z" id="Path" fill="#A46BA1"></path>
            <path d="M193.59,411.41 C193.59,411.41 192.73,419.69 194.49,420.06 C196.25,420.43 224.22,418.36 225.69,416.37 C227.16,414.38 223.88,413.28 223.88,413.28 L205.33,405.28 L193.59,411.41 Z" id="Path" fill="#161616"></path>
            <path d="M172.94,402.33 C172.94,402.33 168.7,407.16 169.65,408.17 C170.6,409.18 189.12,420.34 190.93,419.73 C192.74,419.12 191.16,416.98 191.16,416.98 L183.07,403.66 L172.94,402.33 Z" id="Path" fill="#161616"></path>
            <path d="M154.28,315.34 C154.28,315.34 197.57,334.07 196.19,348.23 C194.81,362.39 185.51,406.64 185.51,406.64 C185.51,406.64 176.96,408.64 172,401.84 C172,401.84 177.78,359.07 176.83,356.24 C175.88,353.41 131.46,330.72 131.46,330.72 L130.25,317.57 L154.28,315.34 Z" id="Path" fill="#103C54"></path>
            <path d="M115.25,362.89 L143.9,362.89 L143.9,359 L115.29,359 C114.49,359 99.19,358.33 99.19,340.27 C99.19,330.81 102.12,327.13 105.19,323.27 C108.63,318.96 112.19,314.51 112.19,303.4 L108.26,303.4 C108.26,313.13 105.26,316.87 102.13,320.82 C98.74,325.07 95.23,329.47 95.23,340.31 C95.23,351.78 100.67,357.31 105.23,360 C108.281412,361.771606 111.707295,362.799371 115.23,363 L115.25,362.89 Z" id="Path" fill="#343433"></path>
            <path d="M133.52,359.74 C133.52,362.03 138.32,365.06 144.05,365.06 C149.78,365.06 154.28,362.06 154.28,359.74 C154.28,357.42 149.79,356.79 144.05,356.79 C138.31,356.79 133.52,357.46 133.52,359.74 Z" id="Path" fill="#343433"></path>
            <rect id="Rectangle" fill="#AF214E" transform="translate(143.905000, 348.235000) rotate(180.000000) translate(-143.905000, -348.235000) " x="113.19" y="340.23" width="61.43" height="16.01" rx="8"></rect>
            <rect id="Rectangle" fill="#343433" transform="translate(143.305000, 357.985000) rotate(-180.000000) translate(-143.305000, -357.985000) " x="118.92" y="356.23" width="48.77" height="3.51" rx="1.57"></rect>
            <path d="M143.8,397.57 C145.233663,397.564517 146.394517,396.403663 146.4,394.97 L146.4,364.09 C146.394517,362.656337 145.233663,361.495483 143.8,361.49 C142.366337,361.495483 141.205483,362.656337 141.2,364.09 L141.2,395 C141.221785,396.421934 142.377909,397.564718 143.8,397.57 Z" id="Path" fill="#343433"></path>
            <path d="M123.75,409.37 L144.09,397.63 C145.258943,396.954751 145.661409,395.461152 144.99,394.29 C144.311336,393.124686 142.81854,392.726905 141.65,393.4 L121.31,405.14 C120.144686,405.818664 119.746905,407.31146 120.42,408.48 C121.098349,409.639352 122.583703,410.036338 123.75,409.37 Z" id="Path" fill="#343433"></path>
            <path d="M163.9,409.37 L143.56,397.63 C142.399366,396.947771 142.002739,395.459303 142.67,394.29 C143.348664,393.124686 144.84146,392.726905 146.01,393.4 L166.35,405.14 C167.510634,405.822229 167.907261,407.310697 167.24,408.48 C166.557771,409.640634 165.069303,410.037261 163.9,409.37 Z" id="Path" fill="#343433"></path>
            <circle id="Oval" fill="#343433" cx="119.21" cy="409.17" r="6.98"></circle>
            <circle id="Oval" fill="#616161" cx="119.21" cy="409.17" r="3.94"></circle>
            <circle id="Oval" fill="#343433" transform="translate(166.770337, 409.185098) rotate(-13.280000) translate(-166.770337, -409.185098) " cx="166.770337" cy="409.185098" r="6.98"></circle>
            <circle id="Oval" fill="#616161" transform="translate(166.804711, 409.159632) rotate(-9.220000) translate(-166.804711, -409.159632) " cx="166.804711" cy="409.159632" r="3.94"></circle>
            <path d="M95.31,274.46 C97.21,280.15 101.84,297.13 95.51,312.6 C95.3197524,313.063094 95.3730879,313.590576 95.6521869,314.006213 C95.9312859,314.421849 96.399351,314.670841 96.9,314.67 L114.1,314.67 C114.626571,314.673066 115.116187,314.399792 115.39,313.95 C116.91,311.4 121.01,301.43 115.14,273.67 C114.989859,272.977588 114.378498,272.482677 113.67,272.48 L96.73,272.48 C96.2452725,272.475805 95.7888023,272.707672 95.5062974,273.101587 C95.2237925,273.495502 95.1505689,274.002223 95.31,274.46 Z" id="Path" fill="#701467"></path>
            <path d="M98.91,274.78 C100.85,280.72 105.15,297.16 99.15,312.25 C98.931293,312.790622 98.9945855,313.404476 99.319002,313.889098 C99.6434186,314.37372 100.186827,314.666173 100.77,314.67 L117.45,314.67 C118.077841,314.670567 118.657874,314.334758 118.97,313.79 C120.55,311.02 124.38,300.96 118.67,273.87 C118.495683,273.059346 117.779185,272.480315 116.95,272.48 L100.58,272.48 C100.016577,272.477205 99.4862709,272.745854 99.1552312,273.201777 C98.8241915,273.6577 98.7329151,274.245122 98.91,274.78 Z" id="Path" fill="#AF214E"></path>
            <path d="M114.1,314.67 C114.1,314.67 105.34,341.72 143.3,344.22 C143.3,344.22 176.6,347.75 177.06,352.53 C177.52,357.31 191.8,411 191.8,411 C191.8,411 195.24,412.11 200.51,409.13 C202.577519,407.868452 204.580065,406.503383 206.51,405.04 C206.51,405.04 197.08,343.82 192.88,340.19 C188.68,336.56 145.79,316.55 145.79,316.55 L114.1,314.67 Z" id="Path" fill="#1A4966"></path>
            <path d="M151.21,216.73 C151.21,216.73 162.28,209.46 153.05,207.39 C146.49,205.91 146.13,208.88 143.37,207.39 C140.61,205.9 137.49,204.27 133.56,207.39 C129.63,210.51 128.26,209.39 127.56,211.17 C126.214836,215.022625 126.214836,219.217375 127.56,223.07 C127.56,223.07 126.09,230.07 130.24,232.14 L142,224.8 L151.21,216.73 Z" id="Path" fill="#161616"></path>
            <path d="M153,215.43 C153,215.43 156,236.21 149.88,237.37 C149.88,237.37 141.64,237.23 141.32,239.45 C140.731225,241.825884 139.924471,244.142371 138.91,246.37 C138.91,246.37 131.59,245.2 128.59,242.32 L129.23,237.37 C129.23,237.37 131.59,210.34 153,215.43 Z" id="Path" fill="#7D471D"></path>
            <path d="M145.52,213.32 C145.52,213.32 137.09,227.97 130.25,232.14 L131.8,215.67 L137.94,211.49 L145.52,213.32 Z" id="Path" fill="#161616"></path>
            <ellipse id="Oval" fill="#7D471D" transform="translate(138.437557, 221.927018) rotate(-30.000000) translate(-138.437557, -221.927018) " cx="138.437557" cy="221.927018" rx="3.36" ry="3.96"></ellipse>
            <path d="M139.46,245 C135.678207,244.881108 131.961248,243.985906 128.54,242.37 C128.54,242.37 119.04,245.37 116.4,249.37 C113.76,253.37 107.51,264.37 114.1,314.74 C114.1,314.74 138.26,325.33 154.28,315.41 C154.28,315.41 150.89,257.41 148.81,253.23 C146.948963,249.324209 143.570384,246.350337 139.46,245 Z" id="Path" fill="#A46BA1"></path>
            <path d="M116.48,289.48 L116.63,290.06 C116.63,290.06 118.28,300.99 120.92,303.92 C123.56,306.85 141.43,318.85 144.45,323.44 C147.47,328.03 150.28,333.95 153.53,333.49 C158.99,332.71 164.26,328.9 161.63,324.12 C159,319.34 151.97,321.58 148.94,318.65 C145.91,315.72 131.57,299.43 130.6,295.53 C130.117812,292.26313 129.827315,288.97083 129.73,285.67 C129.16,275.3 128.73,260.79 128.73,260.79 C128.73,260.79 127.82,251.04 116.62,251.52 C116.63,251.52 108.8,259.13 116.48,289.48 Z" id="Path" fill="#7D471D"></path>
            <path d="M116.24,289.32 C120.572635,287.014964 125.343593,285.651833 130.24,285.32 C129.63,274.39 129.24,259.09 129.24,259.09 C129.24,259.09 128.24,248.81 116.47,249.32 C116.4,249.3 108.15,257.32 116.24,289.32 Z" id="Path" fill="#A46BA1"></path>
            <rect id="Rectangle" fill="#D5D6D5" transform="translate(184.170000, 298.530000) rotate(-180.000000) translate(-184.170000, -298.530000) " x="167.31" y="297.42" width="33.72" height="2.22" rx="1.11"></rect>
            <path d="M200.72,295.7 L207.61,259 C207.728741,258.320193 208.310142,257.818264 209,257.8 L232.82,257.8 C233.25068,257.79896 233.659536,257.989427 233.935821,258.31981 C234.212107,258.650194 234.327227,259.086299 234.25,259.51 L227.44,296.23 C227.310477,296.918322 226.710399,297.417688 226.01,297.42 L202.14,297.42 C201.708965,297.418621 201.300887,297.225545 201.026467,296.893149 C200.752047,296.560754 200.639736,296.123499 200.72,295.7 Z" id="Path" fill="#D5D6D5"></path>
            <path d="M201.35,295.7 L208.25,258.98 C208.375736,258.295051 208.973608,257.798227 209.67,257.8 L233.49,257.8 C233.92068,257.79896 234.329536,257.989427 234.605821,258.31981 C234.882107,258.650194 234.997227,259.086299 234.92,259.51 L228.11,296.23 C227.984833,296.916771 227.388076,297.41687 226.69,297.42 L202.77,297.42 C202.338965,297.418621 201.930887,297.225545 201.656467,296.893149 C201.382047,296.560754 201.269736,296.123499 201.35,295.7 Z" id="Path" fill="#E8E7E7"></path>
            <rect id="Rectangle" fill="#E8E7E7" transform="translate(213.845000, 298.530000) rotate(180.000000) translate(-213.845000, -298.530000) " x="199.8" y="297.42" width="28.09" height="2.22" rx="1.01"></rect>
            <path d="M195.31,299 L198.09,299 C198.226985,299.002686 198.359289,298.950143 198.457106,298.854207 C198.554924,298.75827 198.610026,298.627011 198.61,298.49 C198.61,298.202812 198.377188,297.97 198.09,297.97 L195.31,297.97 C195.022812,297.97 194.79,298.202812 194.79,298.49 C194.789974,298.627011 194.845076,298.75827 194.942894,298.854207 C195.040711,298.950143 195.173015,299.002686 195.31,299 Z" id="Path" fill="#B6B6B7"></path>
            <path d="M190.57,299 L193.35,299 C193.486985,299.002686 193.619289,298.950143 193.717106,298.854207 C193.814924,298.75827 193.870026,298.627011 193.87,298.49 C193.87,298.202812 193.637188,297.97 193.35,297.97 L190.57,297.97 C190.282812,297.97 190.05,298.202812 190.05,298.49 C190.049974,298.627011 190.105076,298.75827 190.202894,298.854207 C190.300711,298.950143 190.433015,299.002686 190.57,299 Z" id="Path" fill="#B6B6B7"></path>
        </g>
    </g>
</svg>